/* XPM */
static char *b5b50e605fa24818cb27e8e478ea9c25tRROFJgJd7zWFRmQ[] = {
/* columns rows colors chars-per-pixel */
"64 64 254 2 ",
"   c #110D0B",
".  c #181618",
"X  c #35120C",
"o  c #291616",
"O  c #341413",
"+  c #3C1B15",
"@  c #3A1C18",
"#  c #2C231D",
"$  c #39261C",
"%  c #3C241C",
"&  c #131E23",
"*  c #261E21",
"=  c #04242C",
"-  c #0B232A",
";  c #1A2427",
":  c #082A33",
">  c #182C32",
",  c #0B333D",
"<  c #15343B",
"1  c #1C343B",
"2  c #292928",
"3  c #3B2B24",
"4  c #362C28",
"5  c #34302F",
"6  c #3B332C",
"7  c #282E33",
"8  c #223439",
"9  c #283639",
"0  c #333333",
"q  c #3C3533",
"w  c #363938",
"e  c #3B3D3B",
"r  c #46130B",
"t  c #4A150B",
"y  c #4D180E",
"u  c #541A0C",
"i  c #461B15",
"p  c #4B1C14",
"a  c #521D13",
"s  c #4B2216",
"d  c #43231A",
"f  c #4C241C",
"g  c #452819",
"h  c #4C2B1C",
"j  c #542315",
"k  c #5A2413",
"l  c #582712",
"z  c #53251A",
"x  c #59261A",
"c  c #542B1D",
"v  c #5C2C1D",
"b  c #5B311E",
"n  c #66280C",
"m  c #652B17",
"M  c #642C14",
"N  c #622D1D",
"B  c #63341D",
"V  c #6B341B",
"C  c #69361A",
"Z  c #773718",
"A  c #723A1D",
"S  c #432C23",
"D  c #4C2C22",
"F  c #482D28",
"G  c #542D23",
"H  c #532D27",
"J  c #5B2D21",
"K  c #4B3224",
"L  c #44332B",
"P  c #43362B",
"I  c #4B342B",
"U  c #4B392D",
"Y  c #553224",
"T  c #5C3324",
"R  c #5B3926",
"E  c #54342A",
"W  c #5B352A",
"Q  c #543A2C",
"!  c #5C3A2C",
"~  c #473631",
"^  c #443B33",
"/  c #4B3C33",
"(  c #433C3B",
")  c #4C3E3A",
"_  c #543C33",
"`  c #5C3D32",
"'  c #583D38",
"]  c #632E22",
"[  c #633524",
"{  c #6B3523",
"}  c #643926",
"|  c #6B3C25",
" . c #62362A",
".. c #69372A",
"X. c #643C2C",
"o. c #6B3D2B",
"O. c #723C24",
"+. c #743B28",
"@. c #613730",
"#. c #633D32",
"$. c #6A3E31",
"%. c #763F30",
"&. c #3C433D",
"*. c #7F431F",
"=. c #4C4237",
"-. c #44443D",
";. c #4C423C",
":. c #554234",
">. c #5A4533",
",. c #5C4334",
"<. c #53443B",
"1. c #5B443B",
"2. c #544A3C",
"3. c #5D4A3B",
"4. c #684027",
"5. c #64412E",
"6. c #6C422D",
"7. c #74432C",
"8. c #784528",
"9. c #7A452B",
"0. c #644333",
"q. c #6C4434",
"w. c #654836",
"e. c #6C4936",
"r. c #63443A",
"t. c #6B4639",
"y. c #634A3D",
"u. c #6C4B3B",
"i. c #734533",
"p. c #7A4632",
"a. c #754A35",
"s. c #7B4B34",
"d. c #724738",
"f. c #734C3C",
"g. c #7B4D3A",
"h. c #6A503D",
"j. c #7E5037",
"k. c #75513D",
"l. c #7C513D",
"z. c #093C47",
"x. c #193B43",
"c. c #253D43",
"v. c #363D42",
"b. c #07404C",
"n. c #0A4955",
"m. c #194950",
"M. c #0E525D",
"N. c #1C535B",
"B. c #284648",
"V. c #3C4343",
"C. c #354849",
"Z. c #3C4B4D",
"A. c #2C524E",
"S. c #34544B",
"D. c #39574C",
"F. c #284B53",
"G. c #364C51",
"H. c #295655",
"J. c #375856",
"K. c #39625C",
"L. c #145763",
"P. c #345F65",
"I. c #444545",
"U. c #4B4442",
"Y. c #444947",
"T. c #4B4B44",
"R. c #444B4B",
"E. c #4B4C4B",
"W. c #544641",
"Q. c #5C4641",
"!. c #544C44",
"~. c #5B4C43",
"^. c #524C4B",
"/. c #4B524A",
"(. c #59554A",
"). c #454E52",
"_. c #445354",
"`. c #4C5453",
"'. c #47585A",
"]. c #4B5A5B",
"[. c #535553",
"{. c #535A54",
"}. c #585C58",
"|. c #644C42",
" X c #6B4D42",
".X c #674F48",
"XX c #714F41",
"oX c #645244",
"OX c #6C5244",
"+X c #65544B",
"@X c #6B544C",
"#X c #6A5A4C",
"$X c #745343",
"%X c #7C5442",
"&X c #7D5946",
"*X c #72564A",
"=X c #7A5749",
"-X c #745A4C",
";X c #7B5B4B",
":X c #665C55",
">X c #735C52",
",X c #795D51",
"<X c #40635A",
"1X c #5B655B",
"2X c #7F624F",
"3X c #68645A",
"4X c #7C6253",
"5X c #786559",
"6X c #445A60",
"7X c #556262",
"8X c #5A6465",
"9X c #5A6A65",
"0X c #57726A",
"qX c #51706C",
"wX c #666D6C",
"eX c #7D7267",
"rX c #657A75",
"tX c #777675",
"yX c #844B2C",
"uX c #87502E",
"iX c #814E34",
"pX c #814F39",
"aX c #835136",
"sX c #875639",
"dX c #83543C",
"fX c #8A563C",
"gX c #8B5A3E",
"hX c #835641",
"jX c #835944",
"kX c #8A5B43",
"lX c #8A5C47",
"zX c #825D4B",
"xX c #915E42",
"cX c #8E6045",
"vX c #85614C",
"bX c #8B634D",
"nX c #936549",
"mX c #9A6B4D",
"MX c #826352",
"NX c #8A6551",
"BX c #8B6A55",
"VX c #876B59",
"CX c #946D55",
"ZX c #976E55",
"AX c #99725A",
"SX c #A17251",
"DX c #847569",
"FX c #8A7A6F",
"GX c #49857F",
"HX c #6B857E",
"JX c #627C81",
"KX c #5A908F",
"LX c #69ADA6",
"PX c #818886",
/* pixels */
"wX}.[.}.1X3X{.`.`.[.[.[.[.[.[.`.`.`.`._._._.`.{.].}.[.].].7X8X7X8X8X8X8X8X8X8X9X8X8X7X7X8X7X7X7X7X}.].}.].[._.G.G.).C.v.0 c.O 3 ",
"wX~.L _ U ^ ~ ~ =.:./ / / / ) 2.<.2.;.U.) ) ) ;.<.W.W.U.U.^.^.^.^.E.).^.`.^.R.E.R.I.I.I.I.E.E.).R.E.R.E.^.`.I.v.v.V.I.U.( I.O i ",
"tX~.2 ~ =.0 q v.e V.Y.R.Y.R.C._._.`.'.].].}.[.[.7X7X`.3XwXrXJX8XwX7X].R.).`.6X'.].].6X).'._.'.6X6X'.'._.`.).Z.Z.V.I.C.D.G.C.O 3 ",
"tX@XU u.;.B.R._ Q 4X-X-X;X_ oX4X,X>X#X/ <.*X#X#X@XF *XVXVXBXVX>X:X.X:X:X:XQ.F *X>X5X3X|.H 5X5X>X3X' ) 3X3X3X>X4 |.`.8 `.}.[.O + ",
"tX:Xr.u.f.W.Z.0._ $X;X;XNXw.,XVXVXMX;X` Q.;X,X*X*XW MXAXVXCXVX4X,X@X*X*X@X|.H ,XMX5X,X$.G VXVX5X5X@.W 5X,X*X-Xi t.I.|.OX XQ.@ X ",
"tX>Xy.f.r.F.R.E.2.&X-X&XBXk.-XVX4X;XMXE OXMX>X;X*X' VXVXNXCXBX4X,X>X,X*X@X#.J *XMX,XMX XG VX5X>XVX@.$.VX4X-X>X% W.[.).-X X' @ i ",
"tX=Xw.t.G.m.I.( B.].oX*XbX$X-XNX-X;X;XH OXVX*X;XXX' MXNXNXAXVX5X>X>X*X*X@X|.J *XMX5X,X#.a VX5X5X5X#.E VX4X;X}.x.v.v.z.R.|.Q.@ i ",
"JX=X` R.F.1.y.t.1.F.`.*XbX$X-XVX;XOXzXW |.4X*X*X*X@.vXNXNXAXCX5X*X.X*X,X.X#. .*X,X>X>X$.p VXMX>X>X .#.,X>X}.B.f #.*X|.x.E.Q.% F ",
"PX:X' M.I.|.^.).W.F.C.}.NX$X;XbXzX=X&XW |.,X*XMX=X#.zXNXVXAXBX4X*X:X@X,X@X' #.&XMX,X>X$.a MX,X>XMXW ..>X3XG.B.F I.+X=XI.x.W.@ F ",
"PX+X_.n.E.|.U.B.v. Xl.Z.7X`.#XvX,X=X&XE y.MXXXjX%X! zXBXBXAXCX,X*X.X@X*X.X#. .=X;XMX,Xt.z MX,X>X>X' R.}.Y.*XQ.8 x.;.*XQ.z.v.O D ",
"tXW.J.M.G.~.@X|. X=Xu.$X X' *XvX*X=X,XW |.=X*X*X X` zXBXCXAXAX,X*X X*XXX@X' @.XX,X,X;X$.G =X-X,X>X#.6 *XOX;X*Xp H XX XC.z.c.O f ",
"tXQ.F.M.L.N.N.N.F.6X'.6X'._.'.].).'.).C.Z.'.'.`.J.' =XNXAXAXZX,X X*X*X*X@X' @.).].:X[.E.v.}.[.`.'.C.C.'._.).G.c.m.F.B.z.z.c.O f ",
"tX(.P.M.M.F.F.m.v.R.V.I.U.I.U.!.W.U.2.q ( Q.~.~.v.E =XNXZXZXZX;XXXXX*XXX X#.] v.U.|.~.;.q W.W.( U.e w W.U.V.v.9 z.B.c.z.z.c.O j ",
"FX^.P.L.V.0.t.r.#.jXf.%X+X^.*XNXzXXX%X#.q.MXzXzX=X$.=XZXZXZXZX$XXXXXXX*XXX#...$X=XNXlX$.] zX=X,X=X$.) >XzX$XXXz G *X|.v.z.c.O p ",
"eX<.V.L.W.q.).H.G.:X$X/.|.(  XbXzXjXjX$.t.zXzX%X=X$.zXAXZXZXbXXXt.XXXX%X X#.{ XXzXNXlXq.] zXzXzXzX_ ( ~.R.*X+XC.c.!.XX3.z.0 O y ",
"FX>X' M.W.' #.) W H.G.f.hXq.%XbXjX$XhX] $X&XjX$X=X$.zXAXZXZXlX X X%X=X%X X@...hXlXbXzX%.] zXvXzXzXf...lX*XC.F.i 3 y.k.Q., ' f y ",
"eX,Xt.V.m.1.f.0.,.B.y.f.kXu.%XbXl.f.l.J XXzXzX%XzX#.jXCXCXxXnXXXf.%XXXXXXX@...%XlXjXzX$.] =XzXzXzXXX{ lXlX Xc.D J XX*XC.( #.D y ",
"DX4X Xq.C.N.G.R.F.OXl.g.dXi.%XnXj.dXg.T XXzXhXjXjX$.jXZXZXnXlXXXu.XXf.%Xd.$.+.hXlXlX=X%.] hXbX=X=X%.m NXlXhX~.x.v.E.B.w t.` G p ",
"DX2Xy.s...B.' _ r.dXgXs.dXq.%XlXdXdXk. .f.%XdXlX%Xo.&XnXmXnXbXXXu.$Xf.%XXX%.+.%XlXlXjX%.] jXhXjXjX%.] jXhXXX=XH G ' c.t.t.r.D y ",
"DX;Xr.o.$.W.E.q.u.j.fXp.sXe.%XhXdXl.l.} XX%XhXhXhXX.jXnXmXxXnX Xf.f.d.f.t.$.{ hXjXlXlX+.{ hXlXhXdXd.N $XXX%XhX] ] Q.Q.t.q.#.f k ",
"FX$X#.| ( B.r.#.0.g.fXsXkXd.%XgXhXg.hX .g.%Xg.dXdX$.%XnXnXxXcXh.u.f.f.f.XX$.+.%XhXkXlX%.{ lXxXlX%Xg.x XXhXg.%Xa N r.9 ) w.` f k ",
"eX*X` 7...$.q.q. XaXsXsXdX6.f.dXfXpXg.@.d.g.dXkX%X#.i.kXnXxXnX$Xu.$Xf.f.>X#.%.%XlXxXlXi.{ xXhXhXhXd.m g.hXs.g.G v g.g.i.q.` s k ",
"DXOX_ | | q.o.q.t.s.sXgXhX} e.kXkXdX%XJ $.g.g.kX%Xo.s.gXmXmXkX%X$X Xg.%X*Xt.%.g.kXdXlXg.] pXlXlXjXd.m hXXXd.XXT v a.g.i.q.` G k ",
"DX$X0.[ } i.o.#.q.7.sXgXzX .0.cXxXkXhX .t.s.s.fXjX6.j.xXmXnXkX%X$X$Xf.g.$X$.p.hXkXhXkXd.{ hXlXlXg.$.J f.dXg.d...J q.d.a.t.#.x j ",
"DX*X5.! o.o. .q.w.s.aXfXg.X.t.kXlXdXdX..q.dXg.hXhX$.hXxXSXmXxXk.k.$Xf.%X%X$.p.%XkXfXkX+.{ jXlXhXhXq.x dXhXg.u. .] f.i.q.$.! G a ",
"eX|.0.v T ..o.X.q.pXs.sXg.} q.dXgXkXg.o.t.dXg.dX%X$.hXnXSXmXkXf.k.u.$Xf.%X$.%.g.hXpXkXpX] pXhXhX%X%.x hXhXhX%X .x f.t.i.q.` G m ",
"5Xr.w.} [ o.7.$.#.aXiXo.g.o.q.dXdXdXhXX.u.hXdXkX%X#.%XnXSXmXkXu.l.$Xf.k.XX#.] XXhXfXdXg.+.p.hXhXXX%.] pXhXdXd.@.x q.q.q.t.! D a ",
"DXXX! 7.X.o.i.$.T j.sX} hX} i.j.iXhXpX@.t.g.dXxX%X..%XnXAXnXlXe.f.$X$Xf.XX$.[ f.hXfXjXi...g.hXhXXXd.] hXhX%XXX@.a t.i.t.q.E z a ",
"5Xw.! } $.i.a.} ` p.sX7.jXT i.dXs.s.g.@.t.d.g.jXg. .g.nXZXnXlXu.k.*X Xf.XX#.W XXg.lXkXd...g.hX%XjXq.x jXhX$XXXW a q.#.q.q.Q i a ",
"eXr.` o.Y i.d.#.! p.gX5.kXv i.dXp.pXg.] $.a.a.pXhX] g.hXkXZXcXw.l.OX XOXXX$.] g.hXhXfXd.] g.%XhXjX#.x jXjX X$XH p q.i.i.0.Q @ a ",
"4X<.2.o.iXo.7...} s.aXX.jXT #.p.i.p.a.H t.s.a.g.hX..%Xg.-XbXcX0.f. Xr.+X Xd.T f.dXdXhXi...%X%X%X=X#.a jXjX%X%XE D $.$.d.t.E * y ",
">X) !.o. .i.a.} ! sXs.! jXG 0.p.7.iXg.f #.i.i.dXg.X.$Xg./.bXkX5.u. X1.{. X$.G u.%XhXdXd.] g.%XjXjX$.p XXXX$XXXE p t.t.g.d.` * a ",
"@X/ ~.p.6.o.g. .X.lXiXw.hXG q.a.%.9.g.G W %.p.g.l.o.a.$X9Xl.l.5.u.y.{.1Xe.r.v e.%XdXhXd.] g.%XjX%X#.y hX=X%Xk.H p t.s.g.f._ * y ",
"@X~ (.s.i.a.g.} R dXaXe.hXW t.s.7.g.g.G X.o.p.jXa.R ,.GXKX0X4X4.` 2.qX0X{.2.T e.%XhXdXt.] %Xg.=Xf.$.i jXk.&Xk.' i q.a.a.d._ * r ",
"+XF ~.pXp.s.i.v Y hXdX6.hX#.t.s.7.g.%XD #.o.+.g.a. .h.0XKX0Xl.e.<.2.7XKX1XW G q.jXdXl.t.N jX%XjX=X$.a  X%X*XXX@.a f.s.o.$._ * r ",
"OXF =.iXs.s.i...E sXdXp.j.q.t.aX7.pXg.f ! d.s.fXiXR a.HXKX0X&Xk.(.E.HXLX0X#.G f.l.dXg.0.J g.$X%X$X#.x f.$XXX X@.p i.a.i.$.E * y ",
" XR W 7.7.7.+.} G j.hXs.a.q.q.g.p.iXpXf Q a.a.dXjXJ t.rXKXGXk.a.^.Y.qXLXrX#.G q.jXkXg.q.J l.&Xk.%Xq.G q.%XXXu.#.a q.%.p.d.W @ y ",
"|.R ..O.O.a.X.} X.aXdXaXg.X.` s.9.iXpXD W } a.fXjXc w.[.GXqXk.e.U.I.<XGXqX1.G i.f.dXl.#.J $X%X$X&Xq.D t.XXf.u.Y a q.q.a.d.W @ t ",
"|. .} O.+.o.} q.5.j.gXiXa.u.o.p.O.7.p.D W | p.s.jXc W ;.J.2.a.k.;.-.&.S.T.` c i.hXjXg.t.c f.k.l.%Xq.f f.f.u.$X .a f.i.a.q.R d t ",
"r.W } +.[ o.| o.r.j.sXdXl.u.! 9.O.+.i.f T o.+.sXzXv 5.5.-.j.j.k.X.` :.2.0.#.x f.l.fXl.u.v f.%X%Xl.#.f q.t.f.t.E y s.i.q.o.R % t ",
"0.T o.N G o.o.[ 0.g.s.aX%Xu.[ 7.V 9.o.D W o.o.pX&Xc q.s.T.l.j.h.X.u.R -.0.0.J $.hXjXhXf.c g.l.hXhXX.G q.t.0.q.R i i.$.o.W E i t ",
"r.! } c T o.o.X.r.a.dXs.$X0.T 8.V V o.H W [ 9.a.l.s q.s.9.dXsXa.0.e.X.T q.5.x o.kXaXhXq.x j.%X%Xk.#.G q.q.q.0.Y p q.o.X.X.R @ t ",
"y.! E s [ i.6.X.` 6.s.g.%XX.T O.V { 7.D R { %.7.f.z q.iXcXgXsXa.5.q.q.o.q.5.j i.aXhXdXq.l 6.hXhXdXX.c e.l.0.e.G r i.#.0.T Y % r ",
"5.! ! c [ o.| 0.! o.8.l.f.! G O.{ V 7.E R O.7.7.g.s a.dXcXfXsXf.5.e.q.q.q.0.z 7.l.hXaXX.j j.l.dXe.X.b i.q.q.e.c r o.#.X.v c + r ",
"0.! R g [ X.[ #.! 7.7.aXf.X.Y O.V V o.H H O.7.o.s.g o.s.aXiXiXf.5.6.a.q.k.q.z { iXiXp.6.x aXl.l.dXo.v q.q.! q.c r 6.6.X.T G % t ",
"0.! G X F 9 ^ ! ! } i.a.i.J J V M V o.D E | | 9.7.s } 8.aXyXiXd.,.5.q.e.e.X.s { iXiX9.4.s 6.l.a.sX! h q.i.q.6.c X ! 7 0 ! Y s t ",
"X.! E z x 3 e ` ! C 7.7.7.J J V V m +.Y ! | | o.q.s B 8.yXuXuX6.>.T T 5.6.X.p C 9.9.a.a.j q.j.i.s.X.l a.X.4.} G r D 2 4.4.Y X t ",
",.! W v J 8 ~ / Q { | 6.i.G } A m A 7.c #.C 7.7.q.s C yXyXyXiX%.R X.T T } W y { 8.9.8.i.j 4.j.6.p.X.f 4.a.X.o.D + H > Q R R X t ",
"3.! E v 9 z.9 1 c.^ o.o.a.E R A M V s.s 0.| 7.7.6.s B A yX*.*.{ ,.o.R } } T t C 8.8.8.7.j } s.6.a.5.h o.4.4.>.7 ; 3 ; > :.Y X g ",
"#X! U > x.E } R 3 1 L } 5.E } O.M V 7.s ! | 7.d.6.d B Z *.Z *.+.>.X.} T T Y r } *.8.s.7.z b 7.6.6.R h 5.4.5.1 # X b b 2 > g o g ",
"3XQ / b.0 ..X.^ D 9 1 ' o.D R O.M M { F ` 6.O.6.5.g b n *.Z A 7.3.! } B c v i C C A 4.| g b } C 4.R h R 5.7 > * o ~ R c - 2   s ",
"#XL V.b.q R q z.> 3 J 7 ( q L V u M B F ` 7.C | 6.h b Z Z Z C O.,.! [ B v b r b M A A B s T B v b ! 4 U 0 K h ; - ; D h = . ; s ",
"OXS A.b.c.S ! P E |  .G L 7 K B k M m ~ ,.q.} o.R Y b Z Z Z Z 6.3.>.B b v c p c b C C b f Y ! c } Y o 6 } 6.K g X g h S = : - d ",
"#X3 _.b.b.x.w x.&.;.q L ( 9 w U F D 6 e ;.1.=.) &.L { n Z yXZ | ! c b [ T Y @ 5 &.=.:.=.q ( ) e =.e 7 w e &.w 9 : < 8 : = = ; X ",
"+X6 S.b.z., z.z., : , < < , < < 1 8 x.< x.9 w 9 b.2 v n Z Z Z q.>.Y h b c ! @ 8 x.7 q w 8 w w w 0 7 > 8 5 > 7 7 : : - = = = ; g ",
"{.P F.b., Y g q _ X.D T U 5 D u u k s S _ [ o.w.R 3 W V Z Z Z O.5.Y j h h Y s T c B 6.X.K R 6.5.6.c d 6 >.S Y K O G c # = = & g ",
"1X^ B.b.9 X._ C.e <.P -.9 > 2 n n u l U ,.e.f.5.5.3 w.A A Z M e.,.Y g h c K g } Y b 6.e.K 5.5.6.4.b - ; - &.6 &.> 1 Y h = - & # ",
"3XT.4 b.B.I 6 1 2 1 8 4 >.K K M n n b L 1.q.5.1X{.S w.8.*.A A 5.>.K g h K K h ! _.=.4.h.U R 5.4.4.b g K # 2 < ; . 4 Y K = 2   $ ",
"1X(.~.1 z.( _ -./ 9 C.Q >.=.:.B n l B L <.e.h.B.D.P w.8.A 4.8.h.,.K S h K ~ 3 X.H.&.4.e.U R w.R B h g K >.R , 2 $ K K 2 - $   O ",
"9X(.1.P b.m.Z.D.C.x._ q.,.>.:.C n C C S <.y.e.h.oX=.>.s.8.j.k.w.:.=.K P U !.P ! K K 4.>.U Q 5.R R K P $ >.K 6 : ; 9 1 , $ $   $ ",
"3X(.=.=.4 b.x.9 0 3.3.h.3.:.U 4.B | e.U =.h.3.3.~.U 3.8.8.k.k.h.2.>.2.2.=.~.P ,.w.R R w.=.K 4.>.4.h P $ >.U >.K . $ , $ g g   3 ",
"9X-.=.=.&.1 A.T.!.h.y.3.oX=.:.4.4.e.h.=.=.(.oX3.2.^ >.e.e.h.k.h.2.HX9X:X2.(.6 3.w.>.4.>.P K >.R :.P =.6 >.U =.P # &.< 3 S $   $ ",
"1XT.Y.!.A.N.H././.3X(.2.(.-.^ w.w.OX3.&.-.1X1X1X/.&.T.3.h.h.oX3.2.1X<X2.2.(.5 ^ 2.2.3.2.6 K =.&.&.6 4 &.=.&.&.&.; 2 , , 2 2 . 3 ",
"0XK.K.S.&.B.A.S.D.K.K.D.K.S.S.S.D./.J.D.K.J.S.S.S.S.S.D.D.D.K.S.S.A.H.J.J.J.K.K.H.S.D.S.H.&.m.&.A.H.H.&.H.K.S.H.A.H.m.A.m.H.A.&."
};
