/* XPM */
static char *result[] = {
/* columns rows colors chars-per-pixel */
"64 64 250 2 ",
"   c #23161D",
".  c #2B141C",
"X  c #2B1B1E",
"o  c #37171C",
"O  c #3B141C",
"+  c #2D201F",
"@  c #251721",
"#  c #261B23",
"$  c #2C1D24",
"%  c #2C1E29",
"&  c #331D23",
"*  c #361C27",
"=  c #3A1C22",
"-  c #2E2125",
";  c #2E2229",
":  c #322226",
">  c #3B2225",
",  c #33252B",
"<  c #3A252B",
"1  c #36292C",
"2  c #3A2A2D",
"3  c #2E2130",
"4  c #352631",
"5  c #3A2732",
"6  c #362A31",
"7  c #3C2D32",
"8  c #3E3134",
"9  c #3F3139",
"0  c #4C1317",
"q  c #44151C",
"w  c #4C151C",
"e  c #431A1E",
"r  c #4C1A1D",
"t  c #531216",
"y  c #5B1216",
"u  c #54141A",
"i  c #5C151B",
"p  c #541B1D",
"a  c #5C1B1D",
"s  c #651215",
"d  c #6B1214",
"f  c #6A1915",
"g  c #621419",
"h  c #6B1519",
"j  c #631D1D",
"k  c #6C1C1C",
"l  c #721415",
"z  c #781111",
"x  c #791917",
"c  c #721C1B",
"v  c #6B251B",
"b  c #7C241C",
"n  c #75281B",
"m  c #7C2B1D",
"M  c #71321C",
"N  c #441C22",
"B  c #4B1C23",
"V  c #471C28",
"C  c #571A22",
"Z  c #531C21",
"A  c #641C22",
"S  c #6D1D22",
"D  c #751F21",
"F  c #442226",
"G  c #4C2224",
"H  c #492827",
"J  c #43242A",
"K  c #4B252A",
"L  c #432B2E",
"P  c #4B2A2C",
"I  c #542224",
"U  c #5C2323",
"Y  c #53252A",
"T  c #5B252A",
"R  c #552B2C",
"E  c #5B2C2D",
"W  c #422E32",
"Q  c #4B2D32",
"!  c #4C2935",
"~  c #432E39",
"^  c #532D32",
"/  c #5C2D33",
"(  c #433235",
")  c #4A3336",
"_  c #44353A",
"`  c #4A363A",
"'  c #46393C",
"]  c #4B3A3D",
"[  c #533334",
"{  c #5B3334",
"}  c #54363C",
"|  c #5C353A",
" . c #523B3D",
".. c #5C3A3C",
"X. c #652324",
"o. c #6B2324",
"O. c #672927",
"+. c #652A2C",
"@. c #6B2C2C",
"#. c #732323",
"$. c #752C24",
"%. c #7B2922",
"&. c #7C2927",
"*. c #732B2B",
"=. c #69322B",
"-. c #78332A",
";. c #652E32",
":. c #722E32",
">. c #643235",
",. c #6A3133",
"<. c #633B3D",
"1. c #6A3938",
"2. c #773737",
"3. c #6B4535",
"4. c #77423A",
"5. c #493A41",
"6. c #4D3D42",
"7. c #523E42",
"8. c #593C41",
"9. c #643E43",
"0. c #6A3D40",
"q. c #793F42",
"w. c #4E4144",
"e. c #534245",
"r. c #5A4446",
"t. c #54444A",
"y. c #5A464A",
"u. c #56494C",
"i. c #5B4A4C",
"p. c #5B4D52",
"a. c #5E4B55",
"s. c #5E5154",
"d. c #5E5259",
"f. c #644445",
"g. c #634C4D",
"h. c #6A4B4D",
"j. c #734545",
"k. c #624D52",
"l. c #6D4F51",
"z. c #635254",
"x. c #695355",
"c. c #63545A",
"v. c #69555B",
"b. c #66595B",
"n. c #6B5A5D",
"m. c #785052",
"M. c #685761",
"N. c #6C5D62",
"B. c #715D62",
"V. c #6E6163",
"C. c #746466",
"Z. c #89130F",
"A. c #97190C",
"S. c #9B1B0E",
"D. c #831513",
"F. c #841A15",
"G. c #891817",
"H. c #8D1C14",
"J. c #821C1B",
"K. c #951E12",
"L. c #9B1B12",
"P. c #A21E0F",
"I. c #9E220E",
"U. c #84221C",
"Y. c #8B241C",
"T. c #892918",
"R. c #932414",
"E. c #9A2312",
"W. c #932A15",
"Q. c #9A2A13",
"!. c #98271A",
"~. c #932B1D",
"^. c #893619",
"/. c #9B331A",
"(. c #983818",
"). c #AA250D",
"_. c #AC2A0E",
"`. c #B62A09",
"'. c #BC2B0B",
"]. c #AA330F",
"[. c #B7370D",
"{. c #A72A15",
"}. c #B42D13",
"|. c #A93817",
" X c #B63814",
".X c #842923",
"XX c #862925",
"oX c #952C23",
"OX c #83322A",
"+X c #893829",
"@X c #953626",
"#X c #8A3431",
"$X c #863933",
"%X c #A72F24",
"&X c #A43A27",
"*X c #C42B07",
"=X c #C8380A",
"-X c #D63B06",
";X c #C43613",
":X c #894419",
">X c #9C441D",
",X c #9D5B1B",
"<X c #AD470E",
"1X c #BA4C0C",
"2X c #AD510E",
"3X c #B9560E",
"4X c #A74518",
"5X c #B74815",
"6X c #A95617",
"7X c #B65615",
"8X c #B66612",
"9X c #B86917",
"0X c #894627",
"qX c #964923",
"wX c #92542C",
"eX c #884839",
"rX c #974636",
"tX c #A74926",
"yX c #B74927",
"uX c #B85625",
"iX c #A95332",
"pX c #99692D",
"aX c #C8470C",
"sX c #D84908",
"dX c #C7570C",
"fX c #D7580A",
"gX c #C74C16",
"hX c #D34E13",
"jX c #C65814",
"kX c #E45A08",
"lX c #CC670D",
"zX c #D3630A",
"xX c #D8660B",
"cX c #DA760A",
"vX c #C66817",
"bX c #D96916",
"nX c #C87213",
"mX c #D57914",
"MX c #E46507",
"NX c #E87507",
"BX c #E27810",
"VX c #CB6A2B",
"CX c #823F42",
"ZX c #91524B",
"AX c #8E605C",
"SX c #D9800C",
"DX c #D98A12",
"FX c #E68807",
"GX c #EE9906",
"HX c #E08423",
/* pixels */
"2 1 < 1 < 5 7 1 7 , .Xi o $ 7 1 , , , 2 v  .5.] ' 6.t.t.w.] t.y.r.t.e.) 7 8 ] B +Xe.7.y.i.d.N.b.s.' u.L < , B 6X2.] ] 7 , 7 1 7 ",
"7 L 1 < % % , 5 & % ~.d & : 8 ] 7 1 , > 1X#.{ h.z.s.u.] ( ] ` )  .] r.x.7.J < m ..e.p.c.b.b.V.V.t.w.i.s.r.>.bX,X8 ] 7 7 , , 1 7 ",
", W < < ` ~ 4 3 , % {.g : ; 6 7 W , B qX1.x.N.N.N.b.p.e.( 7 7 ( ` )  .r.7.8.{ @Xe.i.s.z.s.s.d.8 ( i.s.i.a.p.&X7.' 7 9 7 1 , , 1 ",
"7 W W 2 J ~ 5.5 # W.I.t * , ; 4 ( } -.[ w.u.p.i.t.t.6.e.) 1 , , 1 1 2 1 , * %.0.e.( 7 ] t.u.' 7 ] w.t.6.e.3.0X7 9 7 7 ~ W 5 4 , ",
", 7 5 ~ 2 ~ 4 @ N hXZ.u , : % ; , 2 j ( 6 2 1 1 8 ] ) 1 2 1 1 9 6 ; - # , % R.e.w.7.: , , ( 6.W ' w.w.] ] 9X~.6 5 9 7 W ~ ~ 4 , ",
"4 7 ~ 7 < 5 % * T.fXZ.u : $ ; ; : x a u.1 9 ] w.2 , , 1 7 7.7.t.e.w.' 8 5 r XXe.7.7 ` _ ' ] i.e.6.w.w.6.%.xXF., 7 W 1 2 7 ` 5 4 ",
"4 7 ~ 7 7 & # C ^ $X).s V { t.e.X.1X^.] ( 1 ] _ ] ' ] 6.p.y.] e.a.e.e.6.1 T./ e.( W ( ( 6.w.e.5.6.y.] +XfXMX!.2 ~ 6 , 1 W 7 9 4 ",
"5 7 5 5 , $ % x ! 8.hXoX<._ 5.p.p.#.3X(.O o ] r.( 8 ' _ ;.$.+.[ ^ *.m x |.1XG L ) ` ] ] ' t.7 ] ' { 4XBXkXkX_.G * , , , , 7 ' , ",
"4 7 ; 4 % $ j ].A $XgXT 9 9 9 ' i.b.1.-.oXv q #.U.^.>X..m.4.6.a.p.u.w.k.:.gXE ` ( 7.e.e.r.( ] 7.7.eXiX8.t.4.aXh = & - ; 1 2 7 ; ",
"; ; ; ; $ & Q.{ y.p.;.o., 2 1 1 ( w.s.i.g.%XaXq.OX5X<.t.g.eX0X7 _ 6.e.y.<.%X@.6.` 7.r.e.1 W W ] ! qX_ 1 , 5 gXL.g N = , 1 6 - % ",
", ; , ; $ U.o.e.z.7.^ x G 2 1 : : ( 7 _ ] 7.2.U.= R ' _ 2 wXbXOX} 6.e.N.M.#X,.6.] ] ] : , 1 ^ +.*.oXB * # # 6X=XZ.d p B < $ # ; ",
", ; ; * D %.{ b.] ( ( X.).T 2 2 < 1 , ( _ 6 t.h.oXU 1 7 W 2X:.] ' 5 5.9 N.m.%X#XY ) 1 : = o.E i.8.D s i C u n kX*XA.z h Z q = $ ",
"- : J !.1.<.x._ 2 2 _ [ [.dXj F * > , 2 5.! ~ M.ZXr.( : qX^.4 2 7 9 9 u.6.c.8.{.zX4Xb T.].R 7., , N x L.@X@XrXiXhX-X'.I.z z d = ",
"D.x =XaXG i.] 1 8 ( ( P dXSXfX<X|.Y.v 1 ! / 8.5.C 4 7 (.>X( 1 8 7 7 5.5.d.6.8.5.OXh.ZXVXm ] , ; & B Y.R < ( u.t.f.iXbX;XyX[.`.L.",
"{ .X1XaXu 8 2 8 ] _ 2 %.4.r.g.h.ZX;XsXNX|.!.J.G.!.1 ; Y 1 ( 2 2 1 7 _ t.a.7.u.4 U.T XXyXp ( ; $ N h @.) ( 7 _ _ ( 7 tX<.x.k.i.i.",
"x.z.] |.F.( ( ' ) 2 U i.t.( 8 r.B.iXkXNXHXZXAXZX&X! % & 8 ) ) ( _ ] 6.u.t.6.7.~ 4XyXiXZX@.1 , Z l A.g J , , ; N @.eXf.i.y.] r.i.",
"k.V.t.a 1X..( 1 1 < E ] ] ( 8 6.z. .7XbXAXc.t.c.y.-.+Xo.Y W ) ( 5.t.5.w.5.6.c.W #X7.d.c.k.p.<.#X}.=XG.g C XX~.OXg.c.e.5.] ] 7.k.",
"n.V.] r fX<.( 8 1 < P ( ( ( ] 2 2 ` 4.ZXM.t.5._ 8 ) o.] e. .)  .t.t.t.5.5.5._ @X;.5.5 5 5 N.N.N.l.rXsXaXgX#Xh.p.t.y.y.k.u.r.r.i.",
"e.i.] H aX/ P H 7 G H 7 1 : 1 1 2 y.9.c.e.7 7 : 2 7 : 1 1 2 ( 2 6 7 9 6.6.5.* 7XJ 4 4 9 5 , 4 6 ~ y.uXNX*.] 5.~ _ t.k.k.x.r.` ) ",
"6.e.u. .{.J.l v C H.R Q 2 1 , 1 2 ] } ' 6 , , 4 2 - 1 : 1 < 2 ( 1 6 9 9 5.9 V dXV % 3 3 3 ; # % % ; I 7X7.( 5.` 7 ( 7.a.y.( ( ( ",
"( ] y.` {.#.2.1.x E.h a E ) 7 7 J b 7 , , ; 1 1 : % $ - 1 1 7 8 e.( 5.7 ' * %.VXCXC A V ; * % 4 ; & C XXy.7.7.5.W 7 7.] ` ( 7 7 ",
"6 7 7 < |.L.o.@.'.`.S.Z.x S A v !./.X.N * * % 6 1 X X G 1 7 1 8 _ t.) 9 _ V XXN.B.k.h.#.4 A V * V Y Y.o.p.k.7.5.6.' W ) ( ) ] 7 ",
"z.c.i. .R.fX_.}.MXsXsXaX|.oXtXvX1.k.eX{.f h a S c l d b 1 8 1 8 _ 5.y.r.7.$XOXy.k.y.k.8.B T.{.oX/.gXdXT t.6.7.5.' W 2 ( ` ] ( ' ",
"t.] ( > D.sXY.XXxXxX@X<.x.i.r...0.V.N.>.1.r.r.i.<.@.@X5Xv 1 7 1 7 ] W 7.8.8.CX2 a.7.8.8.~.jXZ 3 1 0X7XQ ~ ~ 5.~ 7 1 < 7 ] _ ( ( ",
"7 , , > D.sX=X{.~.Y ] n.y.( 1 < R H 7.} ..u.i.s.s.b.n.g.*.#.2 ( 9 ` ( ( , : H j 7.7.7.] 0. XO @ @ = *.N ( ' ' ' _ 7 2 1 W W ( 1 ",
"; % 1 < Q.VXuXb } e.x.r.) 1 2 ] r.>.N I _ w.i.s.u.e.z.z.7.!.k ( ) 1 X . a N , j ~ 5.W 7 9 }.J.q . $ Z Z ( W ' 5.` 7 7 1 2 < : : ",
", 7 W Y dXAXC.h.g.e. .( 7 7 u.i.( X 1 1 9 ' w.t.y.u.i.7. .E yXU.*.E >.<.q.2.0.uXU.K 6.P Z @X*Xi O . r Q 7 7 ] t.] ] 7 < ; ; % ; ",
"` ] J |.DXM.C.B.e.e.y.( : 4 9 ; $ : 1 1 6 6 t.b.u.7.u.u.p.i.B.&XG ( _ _ 5.( ] e.ZXjXOX{ ~.&XiX&XT.s t < J e.5.t.e.` ( 1 , 7 9 W ",
"5 C <XdXpXx.N.u.t.y.W , $ 4 4 , : ( ' ' _ t.M.M.p.e.w.6.a.a.-.|.L - - - 1 : < 7 ] 4.jX].4Xg.V.V.[ {. X_.=.6.t.5.' ( 8 7 7 _ ) 1 ",
"v hXfXFX3.r.b.e.1 ) ~ 5 ; , 7 6 ( ' 5.e.u.w.u.u.u.t.w.t.5.9 8 W.O X - + - ; 1 - , ( $.7X8.7 6.u.i.,.hX*.8 6 6 8 7 1 1 2 _ ( 7 $ ",
"O.U.K.[.m ` e.E * 7 4 4 7 5 9 7 5.t.e.u.u.t.p.p.u.u.t.t.5.5.6 a t X X - + : : : X : ^ {.G $ 1 6 8 ( ~.n - 1 : : - 1 7 ' ( X M >X",
"( r.#.I.].E -.B 5 4 * _ 9 9 6 ] w.t.p.d.d.p.u.p.a.d.a.w.u.5.9 - f $ & : > - - X X $ * <Xd # 1 1 8 8 ^ Y.: ; 6 2 8 2 ' : U 9XmX>.",
") ] ^ D.L. Xj 7 ; % % ~ 4 4 ' w.u.s.s.b.d.u.p.d.d.M.d.e.' 7 W . R.G > 1 1 1 - + #   N W.d # - 1 1 ; - T.N % , 5 _ , N 2XBX3X=.r.",
") W ] U z ).= % % * S S K 6 7 t.u.p.s.d.s.t.9 ' u.e.7 1 1 1 ( O (.L - X + - - - $   q n O o - ; ; - + ~.I w = 6 J (.cXFXnXE e.` ",
"( ]  .[ Y l F.I $ W.S ` 1 9 6 7 w.u.t.w.w.9 ; ; 4 9 < 1 7 7 ( 0 d a p X + - : 1 & o r x $ $     @ $ X 3XF.y u t U.).dXGX8X( ) ) ",
"` ] ) ( W [ U U.R.G.Q _ 9 7 _ 7 1 1 6 3 - - ; ; 4 ; , < 2 1 L a R.Y.R 1 - ( : - X q s R.P 1 &     M 4X$.F : : L 1 ( X.1X9X8 ( ] ",
"] t.` W W ( Q F G z * ) 7 7 9 9 8 - - - - - : 1 ; # ; 1 1 1 K 2.T U.G 8 8 ( 7 : O s _.p 6 1 1 ; v aXa ; , ; 1 ( ' 8 Q K.(.9 1 ' ",
"6.] ) ( ( 7 ) 2 ! %.N 4 9 9 7 7 8 1 ; 1 8 7 8 7 6 7 ; ; : , OXr.n [.n < 1 2 1 > c T.3X7 6.w.w.o o (.; ; - 1 1 8 ( 8 1 $.4X_ 2 ( ",
"8 1 2 2 W 1 8 ) W 2.l $ , _ ~ 7 1 1 8 8 ( ( ( ( _ ' ] 7 > |.6XQ 9.z.Y U r : : > l : U.i 8 s.8 U <X:X: , , 1 2 8 ( 8 ( >.7X1 ( ( ",
"2 L ( ' ]  .> L 2 W.5Xt & % 9 ( 2 8 9 9 ( ( _ ( ( ( (  .@XlX$Xz.b.5.( [ y o + O F.O ( #.(.U (.nX4X1 4 : : 2 8 2 8 8 8 I lXa 7 ( ",
"2 ) ] w.( ` .XC k aX{.U.F.s q ~ H ( ' ) ( ( ( ` ( ( W T.jX@.s.b.t.6.( : r r o r P.y Q | sX<XY :X(.2 1 2 1 2 ( ( ( L ( G lXhXT 8 ",
"( 2 ( ( +.j  XhX XXX9.i.2.J.H.H.R.P ( _ ` ) ( ` ( W U aXv t.z.e.t.8 - o q x B p ).W.e 7 _.F 1 U W.> : ( ( ( 2 2 2 2 ( H 2X=XDXF ",
"- T U.Q.}.%X-.;.~.j.r.H T >.*.!.fX<XO ( ' ` ( ( 8 ) |.$.] k.6.w.2 : : 0 g l y z aXfXR.N ].+ 1 - v L ( 2 ( ( ( 1 2 7 2 R 7XzX5X9X",
"$.6XxXsX;XK.c U.-.z.x.z...+.Y.}.fXFX1Xd F ( ( ( ( m &.` b.e.u.) 1 * O 0 d z D.`./.J n (.^.p : + > J : 2 8 ( ( ) ( H 8 ..{.}.x fX",
"t.v.t.} :.{.*X).o.( ( `  .y.v.OX*.n >X5X[.c q 0 s {.J e.n.i.8 7 1 B o r l `.=XsXj , - % % B U o X p 1 2 ( 2 ( ( ]  .| :.{.'.[.@X",
"y.i.z.N.N.T sX-XU.2 ( ( ) W 5.l.7.y.r.r...0X].R.|.mXr ( 7.] 1 1 > & & w F.jXrXuXe 2 & % # % * > I r > ( 2 2 ( 8 ( W K X./.fXT._ ",
"8 ( 6.z.p.7.zXkX~.: 1 _ ] ( ( 5.i.] r.i.i.e.+XSX{.sXa 7 r.: : , $ $ & p 2XJ 7 t.L < , : $ # % : : J v : 8 8 ( 2 2 P A x dX2X' ' ",
", ( 5.7 e.t.4XMXx r > 6 7 ~ W ) ] g.y.7.r.i.] >XsXkXm 1 ) : : % $ $ o g (.; , t.L : 1 1 , - $ - : $ n o.2 ( ( W H X.G.aX5X` W 1 ",
"1 1 ( ' e.i.E sXG.x A J ( 6.] e.x.y.t.e.` w.i.] uXGX,X- 7 2 : & $ # q H.j : % 1 w & - 6 : : - : : - = <X$.; > I k S.-X~.) L < : ",
"7 7 6 _ t.y.] }.G.&.#Xf.7.t.7.t.i.t.y.i.] ] i.t.| DX8X< 1 7 : $ $ $ r E.l o % < T.* ; ; 1 1 : : : - o /.BX4X4XjXzXcX4X( 7 , < 1 ",
"9 8 7 9 ' ] 6.].P.h T j.<.g.e.` 2 7 2 i.b.x.b.z.e.=.8XP , - % % - & l ;X=XH.k -.tXU.H & 2 1 1 : : - B W.1.g.2.gXVX8X2 ( 2 > < 1 ",
"8 7 6 6 ] ] 6.1X*Xl B < ) i.6.1 1 1 1 : _ i.s.x.t.N NXfXO   $ , , X.#XOX2.0.g.z.c.h..Xj F - : o e F i |.i >.@X$X{ > : < 1 1 1 < ",
"8 8 7 1 ( ( < hXsXZ.w = , 7 _ 1 1 1 1 : 1 1 2 ( ( y '.fX(.$   # 1 w.b.c.s.e.r.s.u.k.x.:.#.s u t h z Q.xXvXiXxX,X0X1 : 8 2 2 2 8 ",
"8 ' ' _ _ ; v { / {.y = : 4 8 7 1 6 2 7 2 1 2 8 ' i fXMXfX5Xj r ( 6.' i.i.y.t.y.7  .] y.i./ x Z.). XU. .e.r.>.vXGX> 8 2 2 2 8 ( ",
", 7 7 7 4 = X.] 5.!.g C * 4 7 9 7 8 2 1 2 L 2 W w.i MXR.=./.fX7X8 1 8 7 ( ] ] ' ` ] ) ( ( ] v %.9.>.6. .t.e.s.h.wX-.L 2 2 2 8 2 ",
"7 , 4 7 J m > ( ) 1Xl w = , 7 6 _ ] e.] 2 2 2 8 _ +.NXR.w +.=XcXI $ % F F 1 L P 1 1 ` ( ( w.i e - L  .( ( P 8 u.g..X2 1 1 1 8 2 ",
"2 9 , I lX9X2 W W gX_.i e & ; 7 1 W ) e.6.( ( 2 & ^.fX|.U.n 4.l.f...r.3.OX= q = o   1 ( ( ] q a $ : - ] e.] _ 6.b.2.*.1 ( 1 < ( ",
"= k H.[.fXSX2 L ( }.=XQ.p e = , : : : % ' W 0 Q.zX|.[ )  .r.s.n.z.r.i.i.s.4.>X>XF : $ ( e.` r c o - 7 ` ] ] ] 9 8 r.~.L 2 > , # ",
"> : L { *.@X~.r 4X=X=XaXXX2.2.>.n .X^.:X:X(.hX-X|.` ` w.] w.i.z.i.r.y.u.e.i.h.vXcX=.W 1 ( : m d = : 7 , , ; ; ; 1 ] OXmXwXI V F ",
"8 < 8 _ t.r.7.E {.aX).S H 1 1 _ <.jX1.(.aX'.-X-X2.t.i.r.e.] r.i.z.z.b.V.V.g.y.1.xX3X2 1 : o `.h e : : : 4 7 , 1 1 1 | zXlXC ; : ",
"8 2 2 ( ( ( ] _ ( *.K.p < ] ] W 1 <.&.G.-X*X'.m i.e.] ' ' w.e.r.r.i.z.V.AXV.V.e.R.<X: : ; t '.k R ( ( , , 1 7 1 1 7 < mX$.1 , : ",
"1 < L 2 ( 2 ( ] _ W K.p < ) e.' , 7 7.i.j.=XF.w.6.] 6.] r.r.i.w. .) ]  .u.d.z. .E.2X< , X R.=XE.e - ( 2 , 1 9 7 7 J 2XqX] 2 1 , ",
"2 2 < 2 2 7 7 ( ) 7 c N 1 7 ( 6 W 7 2 _ ] oXv w.w.] ] 6.e.i. .] ] [ ]  .r.r.w.> <XdXG < E <. .8.3.E : 7 1 8 ( ] ( @X4X' ] 1 1 1 ",
"2 2 < < L 7 2 W W : c & , 5 , , 1 1 1 W 1 O.i.w.] ] 6.w.w.] ] ] ] 7.] ` ] u.e.: 3XuX4.i.s.i.u.6.t.r.) 1 1 1 1 - N +X( W 2 8 7 7 "
};
