/* XPM */
static char *result[] = {
/* columns rows colors chars-per-pixel */
"64 64 247 2 ",
"   c #3A3028",
".  c #383939",
"X  c #47382C",
"o  c #533D2B",
"O  c #463D35",
"+  c #533E32",
"@  c #3E403F",
"#  c #4A443A",
"$  c #4B443C",
"%  c #544335",
"&  c #54453A",
"*  c #5A4738",
"=  c #5C4B3C",
"-  c #5F503F",
";  c #674B36",
":  c #644D3C",
">  c #64523E",
",  c #6C523D",
"<  c #695A3D",
"1  c #785B3D",
"2  c #444444",
"3  c #4E4A43",
"4  c #494844",
"5  c #4B4B4A",
"6  c #544B44",
"7  c #5B4E46",
"8  c #524E49",
"9  c #4E514F",
"0  c #5B5145",
"q  c #54524B",
"w  c #5B544C",
"e  c #5A574C",
"r  c #575654",
"t  c #5D5A52",
"y  c #5C5D5B",
"u  c #634F42",
"i  c #655343",
"p  c #6B5543",
"a  c #675846",
"s  c #6C5944",
"d  c #62564C",
"f  c #63594D",
"g  c #6C5C4C",
"h  c #725541",
"j  c #745B44",
"k  c #7C5A43",
"l  c #715D4B",
"z  c #625852",
"x  c #635C53",
"c  c #6A5D53",
"v  c #625E5A",
"b  c #5E605F",
"n  c #6F614D",
"m  c #75624C",
"M  c #7D6548",
"N  c #7C644C",
"B  c #646156",
"V  c #6B6255",
"C  c #63625C",
"Z  c #6C645B",
"A  c #6C695E",
"S  c #736353",
"D  c #7B6552",
"F  c #766955",
"G  c #7D6A53",
"H  c #73665A",
"J  c #736A5D",
"K  c #7C6D5B",
"L  c #7D725A",
"P  c #666561",
"I  c #6C6B64",
"U  c #6D6D69",
"Y  c #736D63",
"T  c #796E62",
"R  c #746E69",
"E  c #6F706E",
"W  c #747164",
"Q  c #7C7265",
"!  c #74736C",
"~  c #7C756A",
"^  c #74786D",
"/  c #7D796C",
"(  c #767773",
")  c #7C7C74",
"_  c #7C7D79",
"`  c #845E3E",
"'  c #87623E",
"]  c #956F3F",
"[  c #865F42",
"{  c #846245",
"}  c #8B6344",
"|  c #856947",
" . c #82654C",
".. c #89654A",
"X. c #836A4D",
"o. c #8C6B4C",
"O. c #946944",
"+. c #936D4B",
"@. c #9A6D4C",
"#. c #8E704D",
"$. c #967144",
"%. c #94724C",
"&. c #9A744D",
"*. c #836C53",
"=. c #8B6D53",
"-. c #886B56",
";. c #836D5A",
":. c #926E53",
">. c #916F58",
",. c #857253",
"<. c #8C7254",
"1. c #84735C",
"2. c #8B745B",
"3. c #887A58",
"4. c #8D795C",
"5. c #937353",
"6. c #9A7454",
"7. c #987B55",
"8. c #93745B",
"9. c #9A7659",
"0. c #937B5C",
"q. c #9B7B5C",
"w. c #A1744F",
"e. c #A27B55",
"r. c #A87B57",
"t. c #A27D5C",
"y. c #B37E53",
"u. c #816F60",
"i. c #837564",
"p. c #8A7562",
"a. c #877964",
"s. c #8C7C63",
"d. c #82766A",
"f. c #837A6C",
"g. c #8A7D6C",
"h. c #937C63",
"j. c #9C7D62",
"k. c #927E68",
"l. c #837D73",
"z. c #8A7E72",
"x. c #807D78",
"c. c #A27E61",
"v. c #7E8178",
"b. c #97805E",
"n. c #9B825D",
"m. c #A4825A",
"M. c #AA815D",
"N. c #B88B5E",
"B. c #8C826D",
"V. c #948264",
"C. c #9C8464",
"Z. c #9E8967",
"A. c #94836B",
"S. c #9B856B",
"D. c #9C8A6C",
"F. c #858174",
"G. c #8B8375",
"H. c #84847B",
"J. c #8B857A",
"K. c #84897B",
"L. c #8D8A7D",
"P. c #928573",
"I. c #968775",
"U. c #9D8B73",
"Y. c #938B7D",
"T. c #9A8D7C",
"R. c #969176",
"E. c #9E9074",
"W. c #96917E",
"Q. c #9B917E",
"!. c #A38464",
"~. c #AB8463",
"^. c #A48966",
"/. c #AB8A66",
"(. c #A2876A",
"). c #A48B6C",
"_. c #AA8C6B",
"`. c #B38D65",
"'. c #AA956A",
"]. c #AC926D",
"[. c #B6926C",
"{. c #A38C72",
"}. c #AA8E72",
"|. c #A49176",
" X c #AC9373",
".X c #A4937B",
"XX c #AC957B",
"oX c #A6997F",
"OX c #AD997D",
"+X c #B29473",
"@X c #B59776",
"#X c #B59A75",
"$X c #BB9B76",
"%X c #B39B7C",
"&X c #BA9D7B",
"*X c #B7A17A",
"=X c #BBA27D",
"-X c #C09566",
";X c #C4A37B",
":X c #C6A879",
">X c #7C8380",
",X c #878883",
"<X c #8D8C82",
"1X c #938D82",
"2X c #978E84",
"3X c #8C9186",
"4X c #959284",
"5X c #9B9484",
"6X c #9D9885",
"7X c #959489",
"8X c #9A968A",
"9X c #979A89",
"0X c #9D9A8C",
"qX c #9D9C91",
"wX c #A29682",
"eX c #A49A85",
"rX c #A79886",
"tX c #AD9C83",
"yX c #A39C8C",
"uX c #B49D84",
"iX c #A39E91",
"pX c #AA9E90",
"aX c #A5A18D",
"sX c #ABA28D",
"dX c #A0A88D",
"fX c #BAA385",
"gX c #B4A28A",
"hX c #A4A193",
"jX c #A5A696",
"kX c #ABA494",
"lX c #AEA896",
"zX c #ABA699",
"xX c #AEAA9A",
"cX c #B2A694",
"vX c #B3AA96",
"bX c #B3AD9B",
"nX c #B8AD9B",
"mX c #A7B299",
"MX c #B5B096",
"NX c #B6B19E",
"BX c #BAB29D",
"VX c #B2AEA0",
"CX c #BAB3A2",
"ZX c #B8B5A2",
"AX c #C5A985",
"SX c #C8B192",
"DX c #C3B8A4",
/* pixels */
"<XcXnXkXY x.H.v 1X1Xl.( Y.5X1Xx.F.pXW.F.lXL.x.2XJ.5 ) ) 5 <Xz.1X4X8XF.F.<XY.t qXiXY 8 C ! t f.yXyXI Y.x.J._ Z G.J G.~ t <X_ ( Y ",
"2XrXpXhX~ 7XqX) 7XK.L.F.pXtXsXyX1XW.Q.L.kXY.yXcXrXv pXcXI lXyXhXyXyXJ.7XyXkXd.iXvXz.U 7X9Xv.J.cXvXx.pXqX0X3XT.3XJ.yXiX! pXzX2X~ ",
"2XcXCXkXx.7XqX) L.K.3X6XcXsXgXsX1XQ.wX1XNX<X5XnXnXv zXxXU lXaXkXhX0XH.4XpXkXl.kXNXF.U 6XhXv.G.CXvXx.lXjXhX6XL.9X4XyXnX) zXqXiXx.",
"2XbXVXqXx.8X8X) 7XK.4XL.Q.aXsXaX5XT.2Xx.kXL.d.cXpXw ( _ t W.L.F.J.T.l.6XkXvXl.zXZXG.y ) v.I F.ZXNX~ NXkXhX8XG.NXkX5XCX~ zXzXiXJ.",
"U _ ( I v R v c R y y O q t c Z T c v D T c 6 H p.K c p.u.p.p.p.p.p.g 1.;.H 7 f.f.g 3 t z w c Q T c Q x Z w w i.J J K z ,Xf.z.H ",
"l.iX,XR d.uXtXtXtXp.d wX X=X=X*XuXj.fX;X@X{.p uXc.9.j.c.c.j.j.~.~.~.q.~.(.S.g tXXXXX%XtXOXOXfX&X%XXXOXD.s rX.XD.(.S.|.V 8X8XiXz.",
"<XcXyXx.z.{.j.C._.+Xl gX/.#X$X*X}.uX[.[.[._.k tX9.%.8.:.=.:.+.@.@.@.6.$.O.=.D tX*.8.S.!. X)._.]._.(.V.A.: {.;.G  .*.p.H iX3XqX,X",
"z.pXrXz.z.}.j.S.}./.s.gX'.=X#X#XXX[.@X@X$X_.k @Xe.9.| o.o.@.[ [ } [ } } } ..l gX0.V.j.(.+X X(._. X).A.S.i D.,.N m M  .z iXiXiXz.",
"v 1X5X~ A. X!.(.[.[.A.XX'.+XfX).&X+X+X+X;Xq.k _.7.7.{ .. .[ ..[ O.@.O.` ' { s uXj.!.n.'.}._.(._.).D.E.S.< |.<.X.M | 2.= kXkX8Xz.",
"T wXpX1XP. X^./.~.t.V.uX].'.$X{.$X].].$XAXC.j }.e.t.9.| =.[ [ } O.@.O.' ' { , .X+X$X;X;X$X}.(.(.'.U.E.{.h ).<.,.o.<.*.c 2X5XT.Y ",
"cXCXCXgXP.%X_.^./.!.V.cX'.'.#XC.$X].#XuXAX_.p [.m.m.m.6.:.:.[ ..O.O.` ` ` k : }.].:X;X=X;X$X$X@X|..X|.OXs ).7.X.#.#.k.F bXhXzXl.",
"rXnXnXrXI.&X/.!.!.m.h.uXn.'.C.).;X;X&XAXSX+Xi }.M.r.r.e.%.6.O.} } { ' ' 1 [ : rX X:X:X$X@X&X&XXX%X.XOXtX, D.#.| #.X.{.g iX9X7Xl.",
"f.8X8Xz.S.fX].C.!.!.h.G.V.G V.C..Xh.;.{.{.K #  .0.o.} ` } } ` ` } } [ } ` ; + k.h.0.}.U.s.k.k.P.A.B.g.p.i D.,.,.<.q.C.u t U P 5 ",
"5 r r 2 P.#X_./.!.^.2.  6 # 6 q q 5 8 8 8 q q 3 & & 6 * & 6 % * 7 d 7 & d d q t z w w z z z w w w 8 6 X & D.1.s.2.6.q.u z.3X,Xy ",
"P 2X7XP B.].!.^.).!.*.  I ( ( _ v._ ( ( _ _ ( ( ) _ ( ) ^ ( E ) ) E U v R U E _ ,XH.( _ _ ( E ( E U I O X U.4.*.X.7.!.u W I C @ ",
"r x._ b g.OX).|.).|.n t w 9XqXhXqXqXqXiXqXqXqXqXhXjXzXkXqXyXhX0XiXiX8Xx.<XqX8XiX8X<X7X7X3X,X,X,X7XF.7 Y t U.D.4.,.n.{.d vXNXlXP.",
"y x.l.R Y 7 & 4 6 & O R Y.Z yXNXNXzXbXMXNXCXVXNXNXnXbXbXzXxXkXhXhXjXlXL.1XxXVXdXiXyXyXyX0X8X7X7XJ.z J.A w s , o , ; * S vXVX9X~ ",
"yXDXcXwX7 l j l l g + P K.8XZ Y.wX2XwX5XT.Y.W.4X4XY.Y.F.F.Y.4Xz.f.B.Q F S f.Y.R.T.G.1X9X2XI.J./ z L.<XI 6 U.XX_.!./.(.S CXxXqX! ",
"rXnXrXI.D  .>.-.<.G % I H.qXiXw z.G.g.f B.1.= s.V.h.# e x 9 V b.*.F G b.V.- L b.> a.V.V.K {.OXG.H.3X_ U 6 uX}.8.5.6.q.S NXxX7X^ ",
"z.z.z.d.p.-.9.9.5.2.% A 7XjXlXZ rXU.Z.a V.7.n 7.$.%.& V. XL F 7.*.M G ] ,.a ,.#.> Z.3.L G %.5.B.8Xv._ ! 6 XXj.c.h.5.9.S nXVX0X/ ",
"z J.1XZ p.>.9.9.9.h.% C 7XzXpXZ rXD.D.s n.%.= %.7.7.# B.|.A n 4.n.*.*.] $.a ,.n.< V.L F F %.C.B.4X,X,X( q }.c.c.>.8.q.S CXCXkXG.",
",XxXxXG.h.6.9.8.5.8.: Z 8X0XpXZ I.a.;.a #.M % | #.X.O 6 x 6 6 D G m F 1 M % F ,.= a.L L V 4.V.f.1X<X3X( 6 }.t.t.-.=.q.S lXVXzXG.",
"_ iXzXz.h.c.:.>.:.-.: W 8XxXkXv F Q F L w w W B W I I C C e 6 H V C C I I B A I I t t > & n n e 4X,X<X^ 8 XXr.6.:.8.j.g W.4X4XA ",
"b x.F.Z K j.>.-.X.*.p W 7XnXcXv D.(.^.(.F z.L.0X9X3XK.^ ! t Q.f.g.B W J.8X8X9X4X9XR.f B.s.B.s.S z.<X3X) 3  XM.w.t.t.q.* 2 r P . ",
"~ 4XyX1XS.t.8.=. . .; A 0XnXkXz D.!.C.C.V / 7X0XhX0XL.H.A Q.g.f g.R I U 4XiXzXvXiX8XH B.4.n.n.3.l.1XJ.Z O }.@.@.~.t.c.: v ,X>X9 ",
",X<X3X<XS.0.5.=.o.*.* t qXNXeXZ F l l N = Y.W.aX0X0Xv.A T.Q Z z T.H K Y T 8XyXzXkX2XZ V.7.n.m.V.<X0X0X1X$ }.@.+.t.6.c.: P _ >X9 ",
"_ 3X3XF.h. .=. .N  .o x 7XzX0XY D.m.e.7.m J.L.4XL.L.A Q.~ A C 3 a.Q.Q i.Q P 2XiXyXY.Z 4.G G X.m 4X8X,X~ 4 ).@.+.r.6.e.* 5 r r # ",
"I v.) / p.D N N N <.o t L.aX8Xz.h.&.&.&.S W K.F.K.! oX~ B B 3 I I Q .Xd.g.f.Z J.1X1XZ ;.3.0.4.n 5XkX7XT 3 }.t.[ r.r.6.: F.5X6XI ",
"L.kXkXP.g a p u > = X w L.yXyXz.g S m m 0 Y J.F.W Q.I.Y z t ~ / v.~ Q .Xd.z.g.Z T <XV Z.n.n.n.;.4X8X<X/ $  Xe.N.r.t.j.: L.7XkXQ ",
"5XJ.1XY.c j.9.c.!.6.X z H.iXhX/ 2 Q Q V . ~ F.W Q.W.f.x t K.7X4XW.7X/ W .Xd.z.z.Z Z z K 3.4.4.G Y.J.4XQ 4 -.c.y.r.9.9.i Y.3XaXW ",
"l.z.J.~ p.t.5.9. .o., t <X0XzXl.t P.D.G.$ Y g.oXR.f.V C K.0XyXyX4X4XL.F.W wXi.d.a.J $ j M { { m Y.hXkXF.$ ).~.r.r.6.8.i 7XL.hXW ",
"5XyXcX5X;.6.=.-.D h k w L.kXvXf.q B x t O f G.f.W V e ^ iXjXzXhX5XeXaX4XZ V i.R Q Y O $.] ] $.2.Y.xXhX1X4 @X6.y.c.c.8.a W.4XK.W ",
"4X4XyXJ.-.8.-.D k N k t 4XbXlXJ |.D.D.E.Z f 5XP.P.f.C K.zXVXCXaXlXaXhX4XA a.G.Q f.V X 0.&.&.&.*.P.xXjXL.3 U.8.e.!.>.8.= Y.J.F.W ",
"G.1XY.l.;.6. . . .o., x 7XcXyXJ Z.E.E.E.Z V H wXg.Y Z Y hXCXbXlXkX4X4XG.Q T.J Q x x w a s 1 < = P.xXxXJ.3 % % * * + % & Y P.W.Z ",
"J f.~ c 2.t.=.=.>.o., x 4XbXxXZ V.Q s.B.f f J V I.Q ~ ~ F.xXbXaX6X0XL.W Q.T Y f f Q T Z.4.3.3.m J.xXxXL.8 - > m m l s a 8X4XsXP.",
"f.bXnXd.p.c.&.+.5..., B 4XvXnXT a M M G # Z g.G.Q P.g.~ W / L.3XL.K.U R.T J 0 W L.W.i.Z.#.,.,.m G.bXsXJ.$ 0 i 4.8.0.2.m yX6XlXL.",
"d.pXyXQ p.~.@.6.6...s v 4XbXMX1X4.2.3.Z.d Y G.5XyXJ G.g.R Q A ^ ^ B T.Q Z w Q 5X6X5Xf.C.<.#.*.N B.ZXNX4X3 g 1.a.h.0.S.;.yXaXxXF.",
"f J Z f h./.:.:.o.[ h Z 8XNXNXF.3.0.C.^.d T zXkXNXkXf.B.g.J / x Z A.Q Z 6 d.yXaX8XyXf.K m s > % F.MXlXG.$ n 1.s.4.D.h.g 2XT.J.V ",
"6XNXbXeXD.!.q.+.-.{ , c 6XlXnX~ ;.0.0.1.6 T 6XlXCXMXaXG.f.I.f.J B.f.J 6 Y 5XNXlXkXyX~ D.^.Z.C.4.G.BXlXF.3 g V.V.D.).m i z.f./ A ",
"aXhXdX5X{.7.6.@.} ..; H 4X8XCX~ a.Q G 1.$ ~ 4XxXNXNXbX5XG.i.I.H g.T 3 g 5XyXbXNXkX6X~ D.&.%.%.2.G.MXkXK.q 0 L B.).S..Xg.4XY.W.Y.",
"6X4X,XY g.q.O.5...} ; c 4X8XMX~ |.C.!.C.e Q 4XkXNXbXkXyXW.G.H Q f.6 w z.wX4XyXyXwXY.Z I.q.n.7.,.R.lXaXG.q a 1.U.U.%XOXg.eXY.8XT.",
"5 b b 5 P.!.o.O.o.} : 0 8XvXbX~ |.C.C.V.w Z l.Y.Y.Y.Y.Y.F.f.Q 6 x 6 ~ z.F.Y.Y.G.G.f.v A.<.G 7.1.Y.aXaXB.8 F a.U.U.OXfXS Y.Y.W./ ",
"r 3X3Xb g.5. .[ [ [ + 0 6XkXbXA L F D V 7 d H F K x J L Q f V c $ f f z c V V w 6 6 4 2.4.3.2.L W.aXaXF.q L h.V.A.%XgXg.sXcXcXkX",
". r 9 . d B.1.*.<.D X d 5XkXlXQ ).Z.C.7.p ;.D.Z.D.N a.2.2.G %.<.p D.Z.*.V.Z.Z.& Z f.q h.X.<.0.B.W.4X6XF.t G k.A.U.{.D.g f.~ Q Z ",
"nXDXDX2XI.XXc.p.j.$Xp d T.lXvXA o.+.<.5.< j q.n.n.,.1.3.2.G $.$.j D.n.X.V.n.C.a a.XXV S.#.0.).A.P.L.9XF.A % 0 g c g i c sXsXlXsX",
"DXnXnXY.D.S. . .=.!.l w 5XlXzXw g l N *.= > N ;.*.l S m m D 5.%.h V.0. .4.C.0.i V Y q k.M ,.A.i.K zXL.F.t V.a.).).).Z.c yX6XdX6X",
"k.d.z.H k.S.D 2.D.!.m 0 5XxXF.G.5XwXQ.I.Q f.P.G.A.c T ;.1.F ;.p.L T ;.i.J S S H J T R T f.G.G.G.0 / hX9Xq C.4.m k <.8.: aXaXkX6X",
"I.kXDX2X).).*.1.!.!.l 6 T.1X5XyX6XyX6X8X6XW.aXsXlXY.DXBXBXBXBXbXnXvXnXbXvXvXaXaXwXkXyXyXyX0X5XL.4X6 ~ L.q j.<.j , X.=.a.yXaXlXyX",
"Q.bXCX5X). X(.2.!.!.s 0 ~ Y.yX1X6XaXaX6XaXvXvXMXMX6XDXMXMXMXBXNXZXMXbXxXhXyXyX8X1X6X4X2X7X4X1X4X3XG.$ y O D.*.1 N  .=.p F.) f.~ ",
"P.zXvXg.!.$X_.V././.l 6 Q Y.F.L.T.1XW.G.Y.6X5X6XeXW.kX6X0XyX6XyXyX5X7X8X7X4XL.1XJ.J.<XJ.J.J.g.z.F.B.V . X }...k j | +.: yXkXxXQ.",
"c K d.H !.%Xm.q.N.N.m # I 8 q e t t t t t z x z x w e t z t x x x x x B t t z 8 6 w z t w w w w w t 0 O   {.o.N k  .+.s dXdX0XR.",
"rXkXNXeX{.fXq.t.`.N.m L |.wX.XU.U.tXXXU.}.|.{.{..Xl g.tXuXgXuXgXSXgXfXgXuXfXk.h.XX{.k.(.XX@XA.A.|.E. X).: D.5.X.M  .o.p 5XL.F.v.",
"eXzXvXL.S.XXj.M.~.`.D }.k.j.8.>.k.9.>.>.>.h.j.j.}.; tX X(.^.^.(.@XfX%X*XAXSX-.uX_.j.!.~.[.~.k.0.s.a.1._.h (.[ *. .X.:.: B.W.W.B.",
"Q J.G.~ a |.C.!.`.[.[ XX6.8.>.>.8.5.*.=.:.:.:.5.8.; XX(.!.(.'.).).S.A.B.@X@Xp.XXj.>.j.c.t.S.q.h.1.<.,._.k C.2.=.*.X.:.u cXsXgXP.",
"yX8X7XF.K k.S.j.M.-X .rX>.8.k.j.>.;.D *.=.=.<.o.+.h  X'.'.). X X}.U.U.P.XXuX>.XX8.8.8.w...5.9.5.o.} 2.^.k {.>.=.*.*.=.: kXrXrXG.",
"Q H.1X) I.s.k.h.j.`.-.tX8.>.h.-.>.2.=.<.X.=.#.#.o., XX X@X%X&X$X&XXX}.|.rX@Xk.XXc.>.:.6.+.w.e.+.+.o.<.^.k j.*.*. . .o.: kX5X2Xf.",
"T.iXkX4XT.U.(.h.j._.*.XX:.:.=.>.8.:.e.e.=.5.+.%.+.h oX#X@X#X&X$X&XOX.XoXOX%Xh.%X~.6.@.@.y.r.y.+.:.8.2.!.k S...*.N M  .: kX4XY.d.",
"2X>X3XF..XtXD ).!.[.;.XX:.:.:.5.6.6.e.w.5.@.$.+.%.j OXAX&X$X;X:X;X|.%X%X*XSX;.uXc.t.w.y.y.y.y.r.r.t.9.~.k S.2. .-.2.*.> sXlXiXT ",
"2XJ.3Xl.Q.%XD.m C.].p |.j.:.o.+...O.O.o.k o.&.O.O., oX}.).^./.^.!.0.C.C.n.D.i %X/.c.t.w.@.O.@.@.9.9.:.q.; j.h.<.*.8.2.i pXcXiXY ",
"z.8X8X~ S *.2.p = m & F : p p : ; * * * * + , , % X 6 > 7 : i a i l S n i a w f & + & & + + l K S 7 & 6 & a & * X X & 6 Y ~ d.z ",
"CXCXDXzXzXDXnXz y v 2 tXDXDXnXR 2X2X2X7XW . r P Z 2 t L.I vXDXcXZ ZXmXdX/ ZXZXdX2 U E ( r Y.cXkXyXq C ! 6Xc kXyX~ lX0X<Xx.H.1X~ ",
"pX2XqX7XyX5XrXv 2XnXU BXiXkXlXl.yXyX0X1X) 4 v.6XW.b / H.~ vXNXlXZ jXL.L.~ BXmXdX2 J.kX0XI T.lXkX8X& y ~ aXV aXiXY.iX8X,Xl.Y.Y.J.",
"pX2X,X,X2XiXkXv 8XbXP bXiXyX2X/ iX1X6X3Xl.q K.Y.L.C I 7X! 5XxXaXB 0X9XW.W DXmXmX9 ( 1X<XU J.lXkXaX6 r ^ yXz iXpXJ.yX8X,XJ.L.1XJ.",
"R P R R J.z.x.3 9 v 2 G.z.~ I q x.! ~ / U . y r e 2 9 P t B F.L.6 W v.W f sX9XK.. y P b 5 $ / ) / $ 3 J z.3 T l.Y d.T Y P Y ( Z "
};
