/* XPM */
static char *result[] = {
/* columns rows colors chars-per-pixel */
"64 64 86 1 ",
"  c #3B3E37",
". c #3C3E39",
"X c #3E423C",
"o c #42433E",
"O c #46483F",
"+ c #3F4440",
"@ c #444642",
"# c #484642",
"$ c #454A44",
"% c #4A4B45",
"& c #474B4B",
"* c #4C4E49",
"= c #514D46",
"- c #504C48",
"; c #4B5145",
": c #4D524C",
"> c #52544D",
", c #53594E",
"< c #585A4E",
"1 c #4E5450",
"2 c #4E5B52",
"3 c #535651",
"4 c #595752",
"5 c #555A54",
"6 c #5B5C56",
"7 c #575C58",
"8 c #5D5E59",
"9 c #625B56",
"0 c #605F5A",
"q c #576056",
"w c #5C6156",
"e c #55615A",
"r c #5D625B",
"t c #5F685E",
"y c #626357",
"u c #63645D",
"i c #68655E",
"p c #65695E",
"a c #696B5F",
"s c #5E6762",
"d c #5E6B63",
"f c #636661",
"g c #696761",
"h c #656A63",
"j c #6A6C64",
"k c #62676A",
"l c #656D69",
"z c #6A6E69",
"x c #716E66",
"c c #726F6A",
"v c #657067",
"b c #6D7166",
"n c #66726A",
"m c #6C736C",
"M c #677A6E",
"N c #6D786E",
"B c #717366",
"V c #72756C",
"C c #7C776D",
"Z c #75796D",
"A c #797B6E",
"S c #6D7471",
"D c #6E7A71",
"F c #727671",
"G c #747B73",
"H c #7A7D73",
"J c #757D7B",
"K c #797F79",
"L c #807F75",
"P c #7B806F",
"I c #758076",
"U c #7C8274",
"Y c #768279",
"T c #7B837A",
"R c #7B897F",
"E c #818475",
"W c #818876",
"Q c #82857B",
"! c #84897C",
"~ c #888A7C",
"^ c #7A8581",
"/ c #7E8B81",
"( c #828D82",
") c #898B83",
"_ c #829286",
"` c #8C918A",
/* pixels */
"hhhfu,uaau,%=99iui9@:8*0031-yjBjBcaZRKDDGJIIthu0u0ggi-JjcVVVV4jh",
"fghfh$pVHUUN>O#=-#%>rrr#*ucHABABAHPw:thh27nN8aiggggg6gc8jjhg4*hf",
"fuuf,hHIIIAZH>aBHQQUh571HAjjBZABZACpbmNmYNe$:uuiggui=c8FFzzzzl8g",
"uwh6qIGPUIHHAj!UUUHZKz1bVbjjaBBAAAAbzmmbnSbDN4igxgu9>5CFCFcmzz18",
"fr7qTIIUIIIPVBPAHHVVHHBAxjbbjbABAAAZuVbnSnmht443>4%jFVHCFCcVcm8F",
"dv5jZUIUIZNPpEAAAZVGKHVjZBBBbbAALAAA,Vlzbnbl*SzzFHzFzVHVFFFzmzh6",
"22U!bumTPZBbwWZPAZBHAHV8BZBBaxAAPAZB3Fbnvnnn7NmScJHr4HVVVcCFGbV,",
"hHI!!Hy2;qtqaUBPAZVVAFG>>>yaaBZABOO=jw%rhvhhrlzSFJJcmGHVFFVHFbm3",
"ABUW~WZbUPNNZPZPPAZZZAV:KV<%aAB<OyCAaiu>3vht1+3SFSH&fHHACVFFFVz@",
"ZZUWEWUaINNNqbPPAPBAAAbwHFVfOO=iBByiu0ui3:X:uj:3rr78~gFKHVcHFV*u",
"AAAALEEwIPIBqqPPPPCLBAajVzjj4ia089yiuyuuuuzhfuh48sufjHaufBFHb4%T",
"HAAACEE<tqq2UqBWEWEECBjuhmj>B0489uuiy0ufrujfuu6FHSSGVuaN7%*8jj,Z",
"VUAAAEy;tBBBbbtPWWWAAA8zmu6j889888uu8uyf640,<,fGDmlnNIlNN5zVBgj8",
"ujabj6>BBaab<qqZPEEEH7$3%8z989889898uuug:@80xummNnlSNDNhn3cjzgh%",
"Fz08buZbbaaba:2aAHPb%:bVmh%888898889uuu8@ujj9ujzSnnnMDDqlwcBg4#6",
"VjhywwBabbaab6hpqwq:$Nhhhb4%fr9u868uuu**ujuia8zbnSnnnItbUa>o,jcF",
"zhuh6jBjjjfabudmHNZthbvhhhwo:ju00888uo.>Buuyu67mlbnlMD:IPBjYZvhl",
"bhhhh,jiuuijawpwZmN3bhhhfhh@@%,6868> #aBcxjiu6p7NnnDn5zZPpYnlhhm",
"bhhhh846uupbyqZqPNb3htthhhh:@uabw% XiCBy>4406,jb5r21the7t:Tvthhm",
"Slhh86uf%%:%Xta2qt7hffhthhu%KAmbZAZbjj6BAAFBjGNNYtHKYHGDd2vhdavm",
"Sbjz3RQF8jj6bauupDh3thfshhp@IMZNZZZZa>ZmzSSSKFjmNNjHKYHYD&7hhjNm",
"mmh5ju6VLBjf68ww3:wh**335763ZZPPPIZUZ5mbzzmSFH3mNd3w67w8e31rnNmb",
"s3:jfAUAAVZp6666q2awqGhdr66jZUTTUPUUb7SmzlzFFH5tnuTHYQQ!KZGrtlmb",
"bHEjjECAZVZr678q6$2rrNvnS3VbvTUTR!!U6hSmmSzGJHwUjQGGGKHYHKY8*$$5",
"HVVHBEAHHjwaw373tnv$nvvMmh,:7NU~W!joXhNmSSmFJG8ZKTHGGGHKGGF@jQQQ",
"HHVVHHHx,8bGvrnYNMIeNnnvneKUZ:quvmmDHpmmmznSCJ6V)TKHJGHJVj58!EQU",
"HHHFZur7FSShnhSMdIv2vmMnhnUHZh(TUHJGGS:$3dFjr5@(!TKFFHz3+&jK!EQH",
"AAHVZ:fGbmNttdse222+t:22:!UHmSGGGGGGGGhVh5:O8g7HRUGGV5.4uKHCHHHH",
"ZHFH63bmNFNh$5mbIINDDtmvr,3u7YGFGGGGSHnHUHhGzjj8UUG8#9Bjx9hHKKHA",
"HVGjOh5jVFG5NYmNddvnnl;whaf83UGSSFNFSGhHblGjf84:63:4xjfgu0uHHUUH",
"AVh-uj8j5w*r(nDnMMnvhv2a6ruuj:tdrr6:73KKJffzKR^/K8xf6uffgu,jmHHU",
"w8jg9wKKTF,SGSSSMMNhht@twuauaf*tJHHKYFzDlG/YYY^^RVj88uuggu:6qwuu",
"THm8hKDHGYl7RSnSSSMr:qvnv7$uauTTNNNNGKH7IYYYYYJY^7g8000ug9-gzzSF",
"FSm3KSSSGHN*l$$@&51&NIIR/(I5rKJGGmSVFGKYUJIDYIlse3z80uu888&8SFSS",
"fSzhHKHKKJh3bbhudr@GDDIYYIYbTFFSGGSFGSGKNJJb2rmJ^Sgf0008481*z778",
"u6:mKKKYKG$jczjjha$YDDGDHNYmGmmmSmFNGGGGNhe3SYJJJJzuu68889-8j7ug",
"bjj4lKHJK87zjBjjhj%YDJDJDDYVKFNNSSFGGGGSSzhFJJJJJJ^-988689%xxuVb",
"BjVhz51r7*VjjBzjjj,TDGGYYIGhHGmFSSFGSSGH8HUUFSJJJJF787->8%9ujyjB",
"Bbjf6fzVj6HjjBjbjj6mSlNYYYt&%6lhzjhu51:&:TTYmSkssk&S))gggcGmb6ab",
"bb%hfuuufuaCjjjjjj6*,3155$jHHKB4rjBBG8bUGjKRFsrlSzF`Kc7JJFSbNX8j",
"u;Bjuuuuuu8bajbjjf@HHHZ3&zHFHVCJBCZB4BGbNFbm6YzSSFh8K3JSSSSlS$%>",
",buhhfuffuu6%:6wu%xAAZV7CHFVVVFFHub%HBjbzmN7ISzzzSc*#FJSSSnnD16>",
"ujuhhfhffuw1Gmzzj6bVZB:BHzmzVVFFGbaBGjjzmmb6KbSSSkz3zFSSSSlmh5UP",
"yjhhhuujgh:HGZNGGG>ubugHFmcFHFCFFzuVjjzzmbz*Ffmbzzgk0zzFSSSk:5,a",
"aaphuuphh:ZZGNNNGF6%>6LFFCccFCVVVuVbzzmccbh*Bfhlhhf7*h838h7%HUZb",
"Ppayuhjw$ZGNDNFNGNz%6KcHFHcFVFFFG6VbzbBzzzf>ztsufff%GQQLVja!UZPZ",
"Pt%;;,w:mZZmNNNGNzV%jFFFCFFGFVHHG13,VNbjjzw*67tuu733~CHQQHWEUIPP",
"Pb3aujubIIDVNNGGFVF#jugHHJGGHGKK5bJ,,Vzzj64hf3#:X@3uHHLQLHPUZUPI",
"UtBapprIZNGGNNNGFmV@VB76cFJHHGz5lDSF*,q7::dsvh*fkzhhjCTQELLExAUT",
"U2ZvpwMINNDGNNmNNmB$9%43@@3hg#@-HNmmhGGShhldk&fhhhhf6HUEEEWLa,PU",
"pqavattZZDGGNGNmmZ8*6jjj8##*#-gi8mm5hbmzNbF833lddhfhwVHCEWEEq;qN",
"bNwpv:vvpmmNGYGZG:>jgfg0uj9&9L00u3-FGFbfhbNbjjhhhdhklwHHEHEE:wpp",
"yatnZYIYlrlGHIZn$8zjgu0uufh8gxiii4HHFmzjlmml5*mhhhfhh1HAAALapWEB",
"b;hDIGIIYub;$:q,>Fjggfffffhk>0g0i>LFmzjjzmmtbnmdttttd:VEAEy:UZBB",
"bqGNIIIYYhq_!_!Iljgzgggufklg4-->-hHFbzlhmmmjzNrshldd&XhyawoaBCBB",
"ubmmNYYINNI_///_zgxgzgfff0k4z^FzhcHzmzmmzlbl7Ne:f43o:jGGKBj,BBBB",
"3KSSSHRKIGv///R_83ffgf0kff0kJSSFmFFcFmmmlhll:3jHNF3*SbmmbmSGwBBB",
"hFSFDGKYIYr_//RIGJ@8gjfffk&FSSSSzFFFmVzjfhhh6Zhhhh5zhmmbmmNK3w:,",
"zHSSKJFGTI:fVjBju41gu>38&#kSSSSmSSghFFz0rhl*bfuuuf@mnnmmmNVH44uB",
"msbSJGFGTh8Ccxjhig01>1ukck7&kSSSSzf86*@@$;:8hhjhu6oNSFFNSGSG8GmF",
"z83rfszmj*cggx008804kLJkkgk4@&srs87-$*3fbVYs5###$>>hVDGSVFVhrGSm",
"lss*$%*4w0xu0g0988884Fkkkgk0zFmmhffz(((TYJRNrauu8888>s537rr8slzS",
"zjjzhVAVBjuu08900094#c0fk007zSlzSSG(TYKJYYYvf8888u0u47QLHKKHKz7h",
"zghf0jCAZC6g06fg0uf4#0fggkf7fkkuflm(RYYGHYYDfuuu8uuu0*cCLHCHCCzc"
};
