/* XPM */
static char *_740ae83af254b10a571be80d7884fecz7PS7LiFpCxMNCWE[] = {
/* columns rows colors chars-per-pixel */
"64 64 189 2 ",
"   c #0C0C0A",
".  c #100F0D",
"X  c #13110E",
"o  c #151413",
"O  c #1A1916",
"+  c #161618",
"@  c #171918",
"#  c #1C1C1B",
"$  c #201F1D",
"%  c #1F201F",
"&  c #22211E",
"*  c #1E1E21",
"=  c #1E2122",
"-  c #1F2228",
";  c #242423",
":  c #282724",
">  c #272827",
",  c #2A2926",
"<  c #242629",
"1  c #26292A",
"2  c #2C2C2B",
"3  c #302E2C",
"4  c #2F302E",
"5  c #32312E",
"6  c #272D31",
"7  c #2C2E31",
"8  c #312F30",
"9  c #2E3133",
"0  c #2E343A",
"q  c #343433",
"w  c #393633",
"e  c #373836",
"r  c #3B3936",
"t  c #343639",
"y  c #36393C",
"u  c #3B3C3B",
"i  c #423E36",
"p  c #413E3B",
"a  c #3E403F",
"s  c #43413E",
"d  c #4A453E",
"f  c #363B41",
"g  c #3C3E41",
"h  c #3E4143",
"j  c #3F434A",
"k  c #444443",
"l  c #494642",
"z  c #474846",
"x  c #4B4945",
"c  c #44464A",
"v  c #46494C",
"b  c #4B4C4B",
"n  c #524D45",
"m  c #514E4B",
"M  c #4F504F",
"N  c #53524D",
"B  c #59554E",
"V  c #5C594F",
"C  c #404750",
"Z  c #454C53",
"A  c #4B4E52",
"S  c #504F51",
"D  c #4E5154",
"F  c #47525D",
"G  c #4D535C",
"H  c #545453",
"J  c #595653",
"K  c #575857",
"L  c #5C5955",
"P  c #535659",
"I  c #55595B",
"U  c #5C5C5B",
"Y  c #615D56",
"T  c #625E5A",
"R  c #5F605E",
"E  c #63615D",
"W  c #69645D",
"Q  c #6C665C",
"!  c #706A5D",
"~  c #4C5562",
"^  c #4B5867",
"/  c #545B63",
"(  c #555B65",
")  c #5B5E61",
"_  c #525E6D",
"`  c #525F71",
"'  c #5E6164",
"]  c #5C636B",
"[  c #5B6675",
"{  c #5C6674",
"}  c #54657A",
"|  c #56687D",
" . c #5B6A7B",
".. c #646463",
"X. c #696662",
"o. c #676866",
"O. c #6C6A65",
"+. c #63666A",
"@. c #65696C",
"#. c #6C6C6B",
"$. c #726D65",
"%. c #716E6A",
"&. c #6D706E",
"*. c #74726C",
"=. c #7A756A",
"-. c #7A756C",
";. c #656C72",
":. c #6B6E72",
">. c #626C79",
",. c #6D7174",
"<. c #6C737B",
"1. c #737474",
"2. c #797672",
"3. c #777875",
"4. c #7C7A75",
"5. c #72767A",
"6. c #76797C",
"7. c #7B7C7B",
"8. c #827E75",
"9. c #827F7A",
"0. c #7E807D",
"q. c #848175",
"w. c #83817C",
"e. c #85827E",
"r. c #89847D",
"t. c #5C6E85",
"y. c #626F80",
"u. c #657181",
"i. c #6B7583",
"p. c #62748B",
"a. c #6C7988",
"s. c #757C83",
"d. c #7B7E82",
"f. c #757D89",
"g. c #677B95",
"h. c #7D8184",
"j. c #76818D",
"k. c #7C838A",
"l. c #798698",
"z. c #768BA6",
"x. c #7C95B0",
"c. c #838484",
"v. c #8A8682",
"b. c #868887",
"n. c #8B8A85",
"m. c #82868A",
"M. c #85898C",
"N. c #8B8C8B",
"B. c #928D86",
"V. c #918E8A",
"C. c #8E908E",
"Z. c #94928D",
"A. c #99948E",
"S. c #858C93",
"D. c #8A8E93",
"F. c #838E9B",
"G. c #898F99",
"H. c #8D9194",
"J. c #86929E",
"K. c #8C949B",
"L. c #949593",
"P. c #999792",
"I. c #9D9B95",
"U. c #92969B",
"Y. c #94999D",
"T. c #9B9B99",
"R. c #A29E96",
"E. c #9CA09F",
"W. c #A4A29C",
"Q. c #AAA59D",
"!. c #8492A3",
"~. c #8994A3",
"^. c #8E99A3",
"/. c #8395AD",
"(. c #8E9BAB",
"). c #929AA2",
"_. c #9098A5",
"`. c #99A1AA",
"'. c #96A6B9",
"]. c #A6A6A3",
"[. c #ACAAA5",
"{. c #ACADAB",
"}. c #B6B4AE",
"|. c #B6B6B3",
" X c #BBBAB5",
".X c #C3C1BB",
"XX c #98AAC0",
"oX c #CAC9C5",
"OX c #D6D5CF",
/* pixels */
"v.A.{.Q. XP.T , : i B.}.[.8.T *.p T B.B.v.2.X.T Y l p l p 2 : H T R E m m H U H w m e.X.X.2.Y s q 8 H Y u 2 q 5 q u q t # p 9.*.",
"r.n.4.I.B.A.v.# : s $.%.T Y m B r B X.8.v.9.v.A.8.9.8.O.%.p X.2.J z k k z s s m 8 e.9.2.X.%.%.J u , X.k y q q q u k u 7 ; b 9.o.",
"A.9.e.9.%.v.N 3 : J Y Y Y J Y m 2 %.Y T %.%.%.$.X.8.2.2.O.c q T k u 8 q q 8 q u 2 T J X.) ..X.T e p U r y q q y u q q 2 @ Z.#...",
"l x J L 9.x p 1 # p B Y J n n Y p 9.J N Y B B T X.X.#.T l , 8 w 3 r p q q q q 2 * z K J *.%.W ..c @ q y u q q q q y h 2 * b U ..",
"5 r 3 w p q , < @ , , , i n l i 3 m J B N B l d l n x l h : p 8 q q q q 3 2 7 < + 8 J J %.%.O...c o < 7 2 2 2 7 e t 8 1 * q k a ",
"o O o o O . 3 w L : $ : , w , 3 2 ; u p p l p d p i p 8 - l g , 3 q 2 , 7 0 0 o < $ w z S ) U f s ; * < 0 7 < ; < 1 * ; u t 9 2 ",
"X & l Y v.R.R.R.}.T.J $ : $ $ 3 l 3 p r 3 , u 5 w p l n N B x s 3 2 q O t - o ; 8 $ : u l ) g w U 8 * 7 * @ ; 8 u S K U ..+.9 1 ",
"$ i $.P.R.R.R.R.A.P.B.p p w p p X.X.B.l d 3 x 2.8.9.9.$.W X.X.%.B J X.m H , > b Y X...X...%.%.' X.U z z < w #.2.+.#...X.X.#.X.h ",
"w n W %.$.8.8.X.Q %.X.s 2 5 Y v.W.V.I.V.J Y B.e.4.-.2.4.r.9.$.%.T X.%.2.g z X.O.H X...T ..O.....o.K v J w *.7.:.*.1.#...U R ..r ",
"i p T $.$.! T W J Y X.s * N A.r.B.W.m v.x %.$.r.q.-.*.*.Y 2.2.8.%.%.X.H 2 s O.J H ..#...#.O.T #.#.E L U z X.#.#.#.$.O...K U K u ",
"3 i B ! Y ! X.$.Y B Y w 3 T O.=.4.n.H O.k %.4.*.*.#.X.J J X.$.*.%.X.J u > N J E X.o.+.....' ..X.3...K N k N ..1.#.X.O...K K U 1 ",
"8 p W ! T Q $.9.X.J l ; 3 l n T X.w.*.l ; m *.X.E E E $.2.X.O.L Y J x r # q L X...1.U X.b L ..E 5.*.X.b p N *.1.X.&.:.1.U S s 2 ",
"i d T T Y N Y X...S w J 3 3 d N 8.W L Y x : #.U L B L J L L E E m B u q + l N X.R L ..#.H K #.#.%.1.I N H T #.o.U ..o.;.K k q 8 ",
"$ d d n p n n p N w w u $ , , d m J m m H # q N K m s r r u w k l r G 9 o 2 r k b s l S K K ) :.1.o...k u T U I H J P H b g t f ",
"; & i l i r p x p , 8 , O & & , : 2 p k b > o w k s w w w r 2 5 u q g 7 ; ; r k c q t r g c Z Z ~ c D y 1 P I P z m P H w < g < ",
"S X.$ : $ & ; +   o : p & . o O O $ # ; 2 H 2 $ 2 5 5 2 2 : : 5 r 7 * ; k : ; 5 t q 8 8 u 7 * * # * ; , 5.g Z g f y 8 * o % S < ",
"T 8.8.d 3 N $ 5 a N d x r a 5 q p & r m T X.E E N l 2 o O N N O.E X.X.K ..T X.U o.X.m 3 8 s 8 2 e u x L o.U p q ..q ; r q u q q ",
"8.$.8.9.V i i m Q.Q.}.Z.O.x 2 5 x *.8.*.#.#.#.*.#.J v > x 4.4.c.7.#.X...%.%.#.O.1.X.#.g X.9.T T 3.#.4.b.n.c.N.#.P y ..5.1.d.:.K ",
"n Q ! 8.J p w -.4.7.4.4.Z.&.x & n l Y O...L E E E N z : J ..L H K T O.3.7.3.%.#.X.#.;.S H 2.:...2.1.' <.3.6.U.) v I L.m.h.m.c.d.",
"! $.! 8.Y l 8 X.3.4.4.2.3.4.X.; l i m J x m J L N J l 5 L J H M T E %.#.#.3.#.;.+.<.<.P p 5.1.5.d.5.o.4.S.M.H...h D m.k.m.f.m.d.",
"n V Q T T u < J *.4.&.3.*.#...4 d d x J N x x N N N N h l m k H K U X.#.#.o.+.+.:.+.i.P q 2.#.d.f.k.s.5.m.f.d.:.y ~ !.k.k.k.d.d.",
"i d Q B k 2 # l L O.$.E E K b u 5 z s k a d x N V b a h s K l x m J L K ....+.#.5.>.u.~ ; :.] i.>.[ ` G a.G.] A * g z.5.6.5.:.@.",
"& , : ; 8 8 9 , u u x a q , u k 4 % 4 5 5 4 5 e u k 3 5 r z k u u u u s g u u g g g h g # e C _ v C g t g y t y 0 - G v P I u q ",
"x w ; 8 s x l m N q l O.3.I.W.Q.Q.I.Z.*.L s k O q q r r k N K b k k K O.O.:.2.I 2 r q r t 9 g j Z ^ Z u 7 * k b b H P u g S I U ",
"3 3 $ n %.9.r.I.v.N 7.*.w. X}.[.P.P.o.R T b k J 4.4.e.Z.7.4.-.e...k 9.1.2.3.m.I ..E I U >.} ^ t.t.} ^ t 9 u c.0.d.M.D.U 7.d.d.:.",
"5 w ; n B Y W W K T O.T O.#.X.R ..E R K N z #.O.L E O.4.4.4.#.*.7.v T E O.X.;.y q h P y.g.g.p.g.g.t.} f e y !.l.F.<.:.+.5.;.5.5.",
"3 5 # r Y J Y Y J a K X.K N E E O.&.&.R U v k Y B E $.*.4.4.2.*.7.l U O.E o.<.t 2 z D | g.z.x.z.g. ._ g 1 4 ~.l.k.1.+.D ] :.+.) ",
"& & , : n L O.E K 2 l N K ..R E &.&.#.K u r ; z B J T W O.3.*.O.K k K #.1.1.I > 2 t D ] p. .t.} y.` j 2 ; e { k.G.1.) q I ' ' +.",
"& & % # $ $ & d q X e x b z k k k d e q e R < : : r a d J H K z # * m U K v u ; 2 5 2 2 t 0 y f t 0 t , 1 9 4 1 2 M 4 - D I P D ",
"5 5 r 2 J u $ q 2 e q 2 > , e 4 ; 4 5 a X.N.P.*.#...k # a t # : U &.J z M q 2 v > u 7 1 ; @ @ 7 2 z g f u u A h 2 e 9 u c t 6 9 ",
"=.8.E E N w p *.].[.|.W.c.&.a H u 4 w.}.OX.XI.n.Z.L.b.2.L r 2 B.R.P.T.:.#.K k ..K ..3.2 v h.;.k k.l.'.'.!.k.] u #.k.j.s.k.:.@.G ",
"Y B T W X.> K 1.b.T.[. X.XoX}.3.b N 3.7.4.c.0.4.9.c.n.v.0.5 Y R.P.n.w.m.M.h.v h.m.k.~.(.s...c k.!.j.f.i.j.k.U +.K.k.S.j.S.k.k.k.",
"V V E L X.# J o.3.0.N.T.{.oX XL.K b *.1.*.0.2.=.-.q.n.n.b.a B *.3.3.c.c.m.D.7.K _.~.(.'.XXF.D f.l.s.5.<.5.s.b k @.k.S.S.K.U.K._.",
"E E W W X.< b R @.,.h.h.S.h.M.5.R b &.7.0.*.2.q.q.q.q.M.b.x m #.d.h.m.b.c.m.m.6.1._.(.(.(.F.I @.k.d.:.6.3.h.h k +.;.6.M.J._.S.M.",
"Q Q o.E K # v +.@.1.5.h.h.k.h.:.Z z &.7.&.*.1.2.0.e.4.0.L.k b &.c.h.h.h.h.7.c.c.h.,.h.k.G.m.b #.1.6.d.6.,.o.= k +.<.3.s.k.k.M.k.",
"E E W R c % k +.&.<.6.3.k.k.h.<.D H ,.&.O.&.#.1.3.1.c.b.H.h d L 1.c.e.d.1.2.:.1.c.D.7.' :.7.k #.d.1.#.#.o.z # b +.5.s.h.h.M.M.m.",
"X.K z b c % u ' ,.5.s.6.k.j.6.5.6 9 :.<.6.,.3.4.3.3.0.C.,.h s J 7.0.C.h.1.1.#.5.3.o.U c.#.D > R 2.,.#.b k q ; v ) <.6.k.k.k.s.<.",
"N a y y # ; 4 h ' <.s.s.j.j.] v % & v ^ [ a.<.,.1.1.3.0.P 2 s s #.,.3.0.1.0.3.3.,.#.I 9 u c ; s K P g q 2 O : h h ' 5.s.5.,.' b ",
"; b o.7.X.*.1.#.D b I ] y L J J E ; ..h Z Z R c 4 R R ' +.K g e u h 9 q 4 : 2 2 4 2 2 # h G &.L 3 ; ) i.<.#.5.1.,...k I t u z k ",
"2 &.d.n.T.`.U.Y.Y.,.I 4 b.Z.C.E.{.P N.S.6.' j 9 o.0.#.&.:.#...) D @.<.c J r 7.k.k.k.S.U.F.K.c.0.:.r d.G.D.U.U.K.Y.H.#.u ' h.' O.",
"u 6.K.@.s.D.).^.K.j.P h 0.6.h.h.M.@.M.H.H.<.v h I D D I P K P b D ' / ' : 1.h.M.M.M.H.H.h.0.3.,.@.v S.M.+.c.H.Y.U.K.+.u @.M.3.3.",
"A c.k.d.K._.K.).H.k.h I h.l.5.3.6.) k.M.j.M.;.Z  .P A D A A H z D K b Z b 7.c.C.M.b.h.3.5.7.3.6.' o.S.M.N.Y._.K.H.b.' h 5.d.,.#.",
"K M.S.J.^.`.'.K.(.^.v c a./.x.z.I ;.k.6.k.,.b % ~ Z D A A A P ) d.k k y e &.H.L.c.c.0.3.h.h.h.h.' 6.S.H.K._.K.D.M.d.D q +.U v N ",
"P f.f.a.u.] (  .^ F y % < j 9 0 @ 1 <.>.Z 0 j.9 # = < t k k g r y u y @ L a a H ,.+.o...5.0.5.D P v 6.+.] h y u j g 1 : q > $ & ",
"1.I c P ' ) b z M 5 R v R ] a ' 1.&...E E K <.K H k b b I +.#...U R #.,.#.7.R K O.R e b k v D M ] / / D ;.>.+.k v 3 b H b K K I ",
"..D.M.G.U.K.d.1.0.] ' K h > ] y.l.<.l.] E o.,.@.+.+.d.<.L.m.k.m.b.n.n.N.L.].E.L.R r H M K H ] ' +.' >.<.;.:.+.] ) / A c u , K N ",
";.;.f.f.i.<.<.;.;.j.I / j v >.a.z.z.| F F ' ] G ( +.+.>.m.D.D.D.H.C.T.]. X`.L.0.K k U R K K ' ' @.o.<.3.:.@.@...I R U P g z m z ",
"] ] ) { ;.( / ~ ] p.z.i.h {  .| z._ ~ j F ~ ' D Z P u ~ k.K.D.N.C.C.].{.|.{.L.*.2 r J b z D U ' ] / I ' ] D b l p b A A ; m x c ",
"_ / / _ ] F Z u h Z F f t 7 G { ` >.` >.P ( ( ( ) ( u g ) 5.d.6.#.K E L U E L N @ O ; 3 q s b S I P v D D v u 2 : 2 2 & s & q q ",
"g f 6 7 0 0 1 1 - - 6 < k 6 < 6 8 t g c c g g g 7 1 = u w u r A N b u v q 3 K K m $ q o o @ * + ; * + # ; % # ; ; : ; : 5 ; ; : ",
"< H K v t M #.M 2 y y ..H U H v 8 y p S ) K U u c b d.g 8 3 q H K K r N ..N , e r o.X.U g w z w H k e q 2 5 q 2 : $ p X.L N N z ",
"t g r q u h D ) j 4 h +.(.^.G.1.6.g k.S.d.d.5.d.o.P L H S 2 b g k H K ..*.%.N s e.4.2.2.X.S 8 , u u q q r u d e 2 2 N O.%.#.E X.",
"8 e u y y c C Z [ 9 v ;.s.s.:.] ] P @.5.d.6.d.9.d.c.N.3.6.p c r r k v x d x u p X.2.%.X.=.L 1 r r r w q w r w w & a W E R T N N ",
"t g h y u h h j f ; P ,.,.;.+.+.+.) :.:.@.,.,.5.2.h.h.:.b 1 8 w u u w u 5 w , 5 Y Y *.%.$.Y 2 ; q r r 5 5 q r w & e L E Y L B K ",
"< t t 7 9 t g f 0 % t D D ) ..] ' A :.+.+.X.I K ) E ' H q s t q w w w 5 : : # & B J %.%.X.X.8 $ ; , 3 , 2 w 5 : o ; w 5 s n x s ",
"+ * < 7 1 1 0 - + 9 t 6 t y A g t - c P G P S S b k s < : I 2 3 5 3 , & O . k O : p n L p w J   X O # O O O O 2 w b O & , 2 & & ",
", # @ < v D +.@.#.;.J.s.0 y 4 2 S ) / S g w c m ..%.T X.#.X...m N +.a N   O 4 J J T ..2.O...X.x p 2 : K 7.X.O.W O.*.#.z U 5 v N ",
"K ' y a 1.h.k.6.h.5.s.F.:.D c I u.F.5.:.' h d.L.v.9.h.1.*.1.6...Q c.0.J N J O.O.$.Q X.O.O.T X.N N s N O.*.*.*.$.E E W x s N N Y ",
"' +.k I ,.6.6.h.<.@.@.@.U 4 b j.s.5.:.6.,.I e.G.n.m.h.%.2.1.1.2.4.4.J : l E N E %.T %.X.T =.X.T L s B W *.$.$.W L V L s r E O.Y ",
"+.' a D ' h.1.&.5.:.] ' I 0 U ,.6.h.d.o.#.' m.M.h.7.&.I X.1.2.%.*.L r : N L L W X...Y Y W %.-...V r x Y *.Q Q O.E N B 2 r L W *.",
":.+.r b :.d.:.6.d.s.+.) 9 t D ' <.6.f.:.t c h.5.#.&.@...%.#.X.Y V d 3 $ r L E $.T $.B Y O.W -.W B w n =.O.E Q *...N r & q x B B ",
"1...a K :.:.+.#.+.,.] g k t y H @.6.#.@.+.8 :.+.+.R U J N V T N n i & o w d J B B Y B Y X.=.4.Q L 5 Y V V N V N L r 2 5 2 , m L ",
"H U q k H K A H ) P c y y * t 7 g D ) P U 8 < S ) b p r d 5 w i 5 5 : $ 3 i d w 5 w p r s i d s x O 5 m m s x x d & : s & & : 2 ",
"2 u 7 H k A g k g k * o k * * 1 2 < 1 t g u u < r g q 2 5 , , 5 , $ $ s & : 5 3 3 & : & O X X o O E r & : : : & X X s 5 : X O O "
};
